<?xml version="1.0" encoding="UTF-8"?>
<svg width="25px" height="25px" viewBox="0 0 25 25" version="1.1" xmlns="http://www.w3.org/2000/svg" xmlns:xlink="http://www.w3.org/1999/xlink">
    <!-- Generator: Sketch 53 (72520) - https://sketchapp.com -->
    <title>cobertura</title>
    <desc>Created with Sketch.</desc>
    <defs>
        <linearGradient x1="100%" y1="62.5269176%" x2="0%" y2="30.7746265%" id="linearGradient-1">
            <stop stop-color="#00520A" offset="0%"></stop>
            <stop stop-color="#2DA401" offset="100%"></stop>
        </linearGradient>
    </defs>
    <g id="cobertura" stroke="none" stroke-width="1" fill="none" fill-rule="evenodd">
        <g id="speed-meter" transform="translate(0.000000, 1.500000)" fill="url(#linearGradient-1)">
            <path d="M12.5,4.71428571 C11.6359375,4.71428571 10.9375,5.41671429 10.9375,6.28571429 C10.9375,7.15471429 11.6359375,7.85714286 12.5,7.85714286 C13.3640625,7.85714286 14.0625,7.15471429 14.0625,6.28571429 C14.0625,5.41671429 13.3640625,4.71428571 12.5,4.71428571 Z M6.25,9.42857143 C5.3859375,9.42857143 4.6875,10.131 4.6875,11 C4.6875,11.869 5.3859375,12.5714286 6.25,12.5714286 C7.1140625,12.5714286 7.8125,11.869 7.8125,11 C7.8125,10.131 7.1140625,9.42857143 6.25,9.42857143 Z M12.5,0 C5.596875,0 0,5.62885714 0,12.5714286 C0,15.5477143 1.40625,18.2757143 3.125,20.4285714 C3.41875,20.9534286 4.165625,22 4.6875,22 L20.3125,22 C20.7359375,22 21.5828125,21.0021429 21.875,20.4285714 C23.59375,18.2757143 25,15.5477143 25,12.5714286 C25,5.62885714 19.403125,0 12.5,0 Z M19.0734375,18.8571429 L17.86875,18.8571429 C16.9140625,17.2008571 15.23125,16.0694286 13.2609375,15.818 L10.8515625,7.43128571 C10.6640625,6.776 10.0875,6.28571429 9.375,6.28571429 C8.5109375,6.28571429 7.8125,6.98814286 7.8125,7.85714286 C7.8125,8.16514286 7.871875,8.28771429 7.871875,8.28771429 L10.1328125,16.2454286 C8.878125,16.7828571 7.8109375,17.677 7.13125,18.8571429 L5.928125,18.8571429 C4.3,17.1882857 3.125,14.9914286 3.125,12.5714286 C3.125,7.36528571 7.3234375,3.14285714 12.5,3.14285714 C17.678125,3.14285714 21.875,7.36528571 21.875,12.5714286 C21.875,14.9914286 20.7015625,17.1882857 19.0734375,18.8571429 Z M18.75,9.42857143 C17.8859375,9.42857143 17.1875,10.131 17.1875,11 C17.1875,11.869 17.8875,12.5714286 18.75,12.5714286 C19.6125,12.5714286 20.3125,11.869 20.3125,11 C20.3125,10.131 19.6140625,9.42857143 18.75,9.42857143 Z" id="Shape"></path>
        </g>
    </g>
</svg>