<?xml version="1.0" encoding="UTF-8"?>
<svg width="25px" height="25px" viewBox="0 0 25 25" version="1.1" xmlns="http://www.w3.org/2000/svg" xmlns:xlink="http://www.w3.org/1999/xlink">
    <!-- Generator: Sketch 53 (72520) - https://sketchapp.com -->
    <title>Garantia</title>
    <desc>Created with Sketch.</desc>
    <defs>
        <linearGradient x1="100%" y1="66.1762882%" x2="0%" y2="25.1738461%" id="linearGradient-1">
            <stop stop-color="#00520A" offset="0%"></stop>
            <stop stop-color="#2DA401" offset="100%"></stop>
        </linearGradient>
    </defs>
    <g id="Garantia" stroke="none" stroke-width="1" fill="none" fill-rule="evenodd">
        <path d="M10.9375,6.25 L7.8125,6.25 C6.9484375,6.25 6.25,6.9484375 6.25,7.8125 C6.25,8.6765625 6.9484375,9.375 7.8125,9.375 L10.9375,9.375 C11.8015625,9.375 12.5,8.6765625 12.5,7.8125 C12.5,6.9484375 11.8015625,6.25 10.9375,6.25 Z M23.4375,18.75 L18.75,18.75 L18.75,1.5625 C18.75,0.6984375 18.0515625,0 17.1875,0 L1.5625,0 C0.6984375,0 0,0.6984375 0,1.5625 L0,20.3125 C0,22.9015625 2.0984375,25 4.6875,25 L20.3125,25 C22.9015625,25 25,22.9015625 25,20.3125 C25,19.4484375 24.3015625,18.75 23.4375,18.75 Z M6.25,20.3125 C6.25,21.1765625 5.5515625,21.875 4.6875,21.875 C3.8234375,21.875 3.125,21.1765625 3.125,20.3125 L3.125,3.125 L15.625,3.125 L15.625,18.75 L7.8125,18.75 C6.9484375,18.75 6.25,19.4484375 6.25,20.3125 Z M20.3125,21.875 L9.0875,21.875 C9.2625,21.384375 9.375,20.8640625 9.375,20.3125 L21.875,20.3125 C21.875,21.1765625 21.1765625,21.875 20.3125,21.875 Z" id="Shape" fill="url(#linearGradient-1)"></path>
    </g>
</svg>