<?xml version="1.0" encoding="UTF-8"?>
<svg width="25px" height="25px" viewBox="0 0 25 25" version="1.1" xmlns="http://www.w3.org/2000/svg" xmlns:xlink="http://www.w3.org/1999/xlink">
    <!-- Generator: Sketch 53 (72520) - https://sketchapp.com -->
    <title>Opciones</title>
    <desc>Created with Sketch.</desc>
    <defs>
        <linearGradient x1="100%" y1="66.1762882%" x2="0%" y2="25.1738461%" id="linearGradient-1">
            <stop stop-color="#00520A" offset="0%"></stop>
            <stop stop-color="#2DA401" offset="100%"></stop>
        </linearGradient>
    </defs>
    <g id="Opciones" stroke="none" stroke-width="1" fill="none" fill-rule="evenodd">
        <g id="small-wallet" fill="url(#linearGradient-1)">
            <path d="M23.4375,14.0625 L21.875,14.0625 L21.875,7.8125 C21.875,6.9484375 21.1765625,6.25 20.3125,6.25 L18.75,6.25 L18.75,1.5625 C18.75,0.6984375 18.0515625,0 17.1875,0 L4.6875,0 C2.0984375,0 0,2.0984375 0,4.6875 L0,20.3125 C0,22.696875 2.365625,25 4.6875,25 L20.3125,25 C21.1765625,25 21.875,24.3015625 21.875,23.4375 L21.875,17.1875 L23.4375,17.1875 C24.3015625,17.1875 25,16.4890625 25,15.625 C25,14.7609375 24.3015625,14.0625 23.4375,14.0625 Z M4.6875,3.125 L15.625,3.125 L15.625,6.25 L4.6875,6.25 C3.8234375,6.25 3.125,5.5515625 3.125,4.6875 C3.125,3.8234375 3.8234375,3.125 4.6875,3.125 Z M18.75,14.0625 L17.1875,14.0625 C16.3234375,14.0625 15.625,14.7609375 15.625,15.625 C15.625,16.4890625 16.3234375,17.1875 17.1875,17.1875 L18.75,17.1875 L18.75,21.875 L4.6875,21.875 C3.8234375,21.875 3.125,21.1765625 3.125,20.3125 L3.125,9.0875 C3.615625,9.2625 4.1359375,9.375 4.6875,9.375 L18.75,9.375 L18.75,14.0625 Z" id="Shape"></path>
        </g>
    </g>
</svg>