<?xml version="1.0" encoding="UTF-8"?>
<svg width="25px" height="25px" viewBox="0 0 25 25" version="1.1" xmlns="http://www.w3.org/2000/svg" xmlns:xlink="http://www.w3.org/1999/xlink">
    <!-- Generator: Sketch 53 (72520) - https://sketchapp.com -->
    <title>Pago Directo</title>
    <desc>Created with Sketch.</desc>
    <defs>
        <linearGradient x1="100%" y1="66.1762882%" x2="0%" y2="25.1738461%" id="linearGradient-1">
            <stop stop-color="#00520A" offset="0%"></stop>
            <stop stop-color="#2DA401" offset="100%"></stop>
        </linearGradient>
    </defs>
    <g id="Pago-Directo" stroke="none" stroke-width="1" fill="none" fill-rule="evenodd">
        <g id="suitcase" fill="url(#linearGradient-1)">
            <path d="M23.4375,6.25 L18.75,6.25 C18.75,2.7984375 15.9515625,0 12.5,0 C9.0484375,0 6.25,2.7984375 6.25,6.25 L1.5625,6.25 C0.6984375,6.25 0,6.9484375 0,7.8125 L0,23.4375 C0,24.3015625 0.6984375,25 1.5625,25 L23.4375,25 C24.3015625,25 25,24.3015625 25,23.4375 L25,7.8125 C25,6.9484375 24.3015625,6.25 23.4375,6.25 Z M12.5,3.125 C14.225,3.125 15.625,4.525 15.625,6.25 L9.375,6.25 C9.375,4.525 10.775,3.125 12.5,3.125 Z M21.875,21.875 L3.125,21.875 L3.125,9.375 L21.875,9.375 L21.875,21.875 Z M12.5,18.75 C11.4296875,18.75 10.9375,18.0140625 10.9375,17.1875 L9.375,17.1875 C9.375,18.740625 10.775,20.3125 12.5,20.3125 C14.225,20.3125 15.625,18.740625 15.625,17.1875 C15.625,15.634375 14.225,14.9359375 12.5,14.9359375 C11.925,14.9359375 10.9375,14.703125 10.9375,14.0625 C10.9375,13.359375 11.490625,12.5 12.5,12.5 C13.4453125,12.5 14.0625,13.2359375 14.0625,14.0625 L15.625,14.0625 C15.625,12.509375 14.225,10.9375 12.5,10.9375 C10.775,10.9375 9.375,12.509375 9.375,14.0625 C9.375,15.615625 10.775,16.3140625 12.5,16.3140625 C13.075,16.3140625 14.0625,16.4828125 14.0625,17.1875 C14.0625,18.075 13.4453125,18.75 12.5,18.75 Z" id="Shape"></path>
        </g>
    </g>
</svg>