<?xml version="1.0" encoding="UTF-8"?>
<svg width="25px" height="25px" viewBox="0 0 25 25" version="1.1" xmlns="http://www.w3.org/2000/svg" xmlns:xlink="http://www.w3.org/1999/xlink">
    <!-- Generator: Sketch 53 (72520) - https://sketchapp.com -->
    <title>Pago Facil</title>
    <desc>Created with Sketch.</desc>
    <defs>
        <linearGradient x1="78.88%" y1="66.1762882%" x2="21.12%" y2="25.1738461%" id="linearGradient-1">
            <stop stop-color="#00520A" offset="0%"></stop>
            <stop stop-color="#2DA401" offset="100%"></stop>
        </linearGradient>
    </defs>
    <g id="Pago-Facil" stroke="none" stroke-width="1" fill="none" fill-rule="evenodd">
        <g id="bag" transform="translate(3.000000, 0.000000)" fill="url(#linearGradient-1)">
            <path d="M12.6666667,14.0625 C12.6666667,13.1984375 11.9589167,12.5 11.0833333,12.5 L7.91666667,12.5 C7.04108333,12.5 6.33333333,13.1984375 6.33333333,14.0625 C6.33333333,14.3828125 6.45525,14.665625 6.62466667,14.9140625 L8.12566667,17.1875 L7.91666667,17.1875 C7.04108333,17.1875 6.33333333,17.8859375 6.33333333,18.75 C6.33333333,19.6140625 7.04108333,20.3125 7.91666667,20.3125 L11.0833333,20.3125 C11.9589167,20.3125 12.6666667,19.6140625 12.6666667,18.75 C12.6666667,18.1125 12.4006667,17.8828125 12.4006667,17.8828125 L10.8743333,15.625 L11.0833333,15.625 C11.9589167,15.625 12.6666667,14.9265625 12.6666667,14.0625 Z M14.25,7.453125 C14.25,7.453125 15.8333333,1.4890625 15.8333333,1.5625 C15.8333333,0.6984375 15.1255833,0 14.25,0 L4.75,0 C3.87441667,6.9388939e-16 3.16666667,0.6984375 3.16666667,1.5625 C3.16666667,1.3890625 4.75,7.4546875 4.75,7.4546875 C2.375,9.928125 0,13.04375 0,15.625 C0,20.8015625 4.25441667,25 9.5,25 C14.7455833,25 19,20.8015625 19,15.625 C19,13.04375 16.625,9.928125 14.25,7.453125 Z M11.9240833,3.125 L11.0833333,6.25 L7.91666667,6.25 L7.07591667,3.125 L11.9240833,3.125 Z M9.5,21.875 C6.00241667,21.875 3.16666667,19.0765625 3.16666667,15.625 C3.16666667,13.4609375 5.61291667,10.9546875 7.467,9.375 L11.5124167,9.375 C13.3665,10.9546875 15.8333333,13.459375 15.8333333,15.625 C15.8333333,19.0765625 12.9975833,21.875 9.5,21.875 Z" id="Shape"></path>
        </g>
    </g>
</svg>