<?xml version="1.0" encoding="UTF-8"?>
<svg width="25px" height="25px" viewBox="0 0 25 25" version="1.1" xmlns="http://www.w3.org/2000/svg" xmlns:xlink="http://www.w3.org/1999/xlink">
    <!-- Generator: Sketch 53 (72520) - https://sketchapp.com -->
    <title>reparacion nacional</title>
    <desc>Created with Sketch.</desc>
    <defs>
        <linearGradient x1="100%" y1="60.3528245%" x2="0%" y2="34.1112615%" id="linearGradient-1">
            <stop stop-color="#00520A" offset="0%"></stop>
            <stop stop-color="#2DA401" offset="100%"></stop>
        </linearGradient>
    </defs>
    <g id="reparacion-nacional" stroke="none" stroke-width="1" fill="none" fill-rule="evenodd">
        <g id="engine" transform="translate(0.000000, 2.500000)" fill="url(#linearGradient-1)">
            <path d="M23.4375,6.15384615 C22.5734375,6.15384615 21.875,6.84153846 21.875,7.69230769 L21.875,9.23076923 L20.3125,9.23076923 L20.3125,7.69230769 C20.3125,6.84153846 19.6140625,6.15384615 18.75,6.15384615 L17.1875,6.15384615 L17.1875,4.61538462 C17.1875,3.76461538 16.4890625,3.07692308 15.625,3.07692308 L14.0625,3.07692308 L14.0625,1.53846154 L16.40625,1.53846154 C16.8375,1.53846154 17.1875,1.19384615 17.1875,0.769230769 C17.1875,0.344615385 16.8375,0 16.40625,0 L10.15625,0 C9.725,0 9.375,0.344615385 9.375,0.769230769 C9.375,1.19384615 9.725,1.53846154 10.15625,1.53846154 L12.5,1.53846154 L12.5,3.07692308 L10.9375,3.07692308 C10.50625,3.07692308 10.115625,3.24923077 9.8328125,3.52769231 L5.603125,7.69230769 L4.6875,7.69230769 C3.8234375,7.69230769 3.125,8.38 3.125,9.23076923 L3.125,10.7692308 L1.5625,10.7692308 L1.5625,8.46153846 C1.5625,8.03692308 1.2125,7.69230769 0.78125,7.69230769 C0.35,7.69230769 0,8.03692308 0,8.46153846 L0,14.6153846 C0,15.04 0.35,15.3846154 0.78125,15.3846154 C1.2125,15.3846154 1.5625,15.04 1.5625,14.6153846 L1.5625,12.3076923 L3.125,12.3076923 L3.125,15.3846154 C3.125,16.2353846 3.8234375,16.9230769 4.6875,16.9230769 L7.165625,16.9230769 L9.8328125,19.5492308 C10.115625,19.8276923 10.50625,20 10.9375,20 L18.75,20 C19.6140625,20 20.3125,19.3123077 20.3125,18.4615385 L20.3125,15.3846154 L21.875,15.3846154 L21.875,16.9230769 C21.875,17.7738462 22.5734375,18.4615385 23.4375,18.4615385 C24.3015625,18.4615385 25,17.7738462 25,16.9230769 L25,7.69230769 C25,6.84153846 24.3015625,6.15384615 23.4375,6.15384615 Z M17.1875,13.8461538 L17.1875,16.9230769 L11.621875,16.9230769 L8.496875,13.8461538 L6.25,13.8461538 L6.25,11.3938462 L11.5234375,6.15384615 L14.0625,6.15384615 L14.0625,7.69230769 C14.0625,8.54307692 14.7609375,9.23076923 15.625,9.23076923 L17.1875,9.23076923 L17.1875,10.7692308 C17.1875,11.62 17.8859375,12.3076923 18.75,12.3076923 C17.8859375,12.3076923 17.1875,12.9953846 17.1875,13.8461538 Z" id="Shape"></path>
        </g>
    </g>
</svg>