<?xml version="1.0" encoding="UTF-8"?>
<svg width="11px" height="14px" viewBox="0 0 11 14" version="1.1" xmlns="http://www.w3.org/2000/svg" xmlns:xlink="http://www.w3.org/1999/xlink">
    <!-- Generator: Sketch 53 (72520) - https://sketchapp.com -->
    <title>Availability</title>
    <desc>Created with Sketch.</desc>
    <g id="Symbols" stroke="none" stroke-width="1" fill="none" fill-rule="evenodd">
        <path d="M5.5,3.5 C4.488,3.5 3.66666667,4.284 3.66666667,5.25 C3.66666667,6.216 4.488,7 5.5,7 C6.512,7 7.33333333,6.216 7.33333333,5.25 C7.33333333,4.284 6.512,3.5 5.5,3.5 Z M5.5,0 C1.76916667,0 0,2.622375 0,5.25 C0,8.70975 4.64841667,13.398875 4.64841667,13.449625 L4.65116667,13.44875 C4.78775,13.77075 5.11408333,14 5.5,14 C5.88591667,14 6.21225,13.77075 6.34791667,13.44875 L6.35158333,13.449625 C6.31675,13.482875 11,8.733375 11,5.25 C11,2.743125 9.16758333,0 5.5,0 Z M5.5,11.375 C5.40558333,11.375 1.83333333,7.039375 1.83333333,5.25 C1.83333333,3.478125 3.57316667,1.75 5.5,1.75 C7.34158333,1.75 9.16666667,3.4335 9.16666667,5.25 C9.16666667,7.03675 5.5055,11.375 5.5,11.375 Z" id="Availability" fill="#757789" fill-rule="nonzero"></path>
    </g>
</svg>