<?xml version="1.0" encoding="UTF-8"?>
<svg width="14px" height="14px" viewBox="0 0 14 14" version="1.1" xmlns="http://www.w3.org/2000/svg" xmlns:xlink="http://www.w3.org/1999/xlink">
    <!-- Generator: Sketch 53 (72520) - https://sketchapp.com -->
    <title>Calculator</title>
    <desc>Created with Sketch.</desc>
    <g id="Symbols" stroke="none" stroke-width="1" fill="none" fill-rule="evenodd">
        <path d="M2.625,6.125 C2.625,6.608875 3.016125,7 3.5,7 C3.983875,7 4.375,6.608875 4.375,6.125 L4.375,4.375 L6.125,4.375 C6.608875,4.375 7,3.983875 7,3.5 C7,3.016125 6.608875,2.625 6.125,2.625 L4.375,2.625 L4.375,0.875 C4.375,0.391125 3.983875,0 3.5,0 C3.016125,0 2.625,0.391125 2.625,0.875 L2.625,2.625 L0.875,2.625 C0.391125,2.625 0,3.016125 0,3.5 C0,3.983875 0.391125,4.375 0.875,4.375 L2.625,4.375 L2.625,6.125 Z M13.125,9.625 L7.875,9.625 C7.391125,9.625 7,10.016125 7,10.5 C7,10.983875 7.391125,11.375 7.875,11.375 L13.125,11.375 C13.608875,11.375 14,10.983875 14,10.5 C14,10.016125 13.608875,9.625 13.125,9.625 Z M12.074125,1.37375 C12.1765,1.231125 12.25,1.064875 12.25,0.875 C12.25,0.391125 11.858875,0 11.375,0 C11.081875,0 10.835125,0.154 10.675875,0.37625 L10.66275,0.366625 L1.91275,12.616625 L1.925875,12.62625 C1.8235,12.768875 1.75,12.935125 1.75,13.125 C1.75,13.608875 2.141125,14 2.625,14 C2.918125,14 3.164875,13.846 3.324125,13.62375 L3.33725,13.633375 L12.08725,1.383375 L12.074125,1.37375 Z" id="Calculator" fill="#757789" fill-rule="nonzero"></path>
    </g>
</svg>
