<?xml version="1.0" encoding="UTF-8"?>
<svg width="14px" height="14px" viewBox="0 0 14 14" version="1.1" xmlns="http://www.w3.org/2000/svg" xmlns:xlink="http://www.w3.org/1999/xlink">
    <!-- Generator: Sketch 53 (72520) - https://sketchapp.com -->
    <title>History Report</title>
    <desc>Created with Sketch.</desc>
    <g id="Symbols" stroke="none" stroke-width="1" fill="none" fill-rule="evenodd">
        <path d="M14,6.9867621 C14.0071411,10.8435363 10.8618548,13.9972621 7.00508065,13.9999718 C5.33933468,14.0011573 3.80927016,13.420496 2.60687903,12.4500645 C2.29422177,12.1977258 2.27085081,11.7291492 2.55497177,11.4450282 L2.87299194,11.1270081 C3.1159879,10.8840121 3.50392339,10.8574234 3.77314113,11.0710081 C4.65900806,11.7739718 5.78010887,12.1935484 7,12.1935484 C9.87070565,12.1935484 12.1935484,9.87025403 12.1935484,7 C12.1935484,4.12929435 9.87025403,1.80645161 7,1.80645161 C5.62218548,1.80645161 4.37079435,2.34186694 3.44162903,3.21582258 L4.87420161,4.64839516 C5.15871774,4.93291129 4.95721371,5.41935484 4.55488306,5.41935484 L0.451612903,5.41935484 C0.202181452,5.41935484 0,5.21717339 0,4.96774194 L0,0.864471774 C0,0.462141129 0.486443548,0.260637097 0.770959677,0.545125 L2.16452419,1.93868952 C3.42122177,0.737709677 5.12445161,0 7,0 C10.8615726,0 13.9928589,3.12685484 14,6.9867621 Z M8.8936129,9.21050403 L9.170875,8.8540121 C9.40057661,8.55868548 9.34737097,8.13306855 9.05204435,7.90339516 L7.90322581,7.00985081 L7.90322581,4.06451613 C7.90322581,3.69038306 7.59993952,3.38709677 7.22580645,3.38709677 L6.77419355,3.38709677 C6.40006048,3.38709677 6.09677419,3.69038306 6.09677419,4.06451613 L6.09677419,7.893375 L7.94299597,9.32933468 C8.23832258,9.55900806 8.66391129,9.50583065 8.8936129,9.21050403 L8.8936129,9.21050403 Z" id="History-Report" fill="#757789" fill-rule="nonzero"></path>
    </g>
</svg>