<?xml version="1.0" encoding="UTF-8"?>
<svg width="14px" height="14px" viewBox="0 0 14 14" version="1.1" xmlns="http://www.w3.org/2000/svg" xmlns:xlink="http://www.w3.org/1999/xlink">
    <!-- Generator: Sketch 53 (72520) - https://sketchapp.com -->
    <title>Hold This car</title>
    <desc>Created with Sketch.</desc>
    <g id="Symbols" stroke="none" stroke-width="1" fill="none" fill-rule="evenodd">
        <path d="M7,0 C3.13425,0 0,3.13425 0,7 C0,10.86575 3.13425,14 7,14 C10.86575,14 14,10.86575 14,7 C14,3.13425 10.86575,0 7,0 Z M7,1.75 C9.599625,1.75 11.743375,3.644375 12.161625,6.125 L9.464,6.125 C9.102625,5.10825 8.141875,4.375 7,4.375 C5.858125,4.375 4.897375,5.10825 4.536,6.125 L1.838375,6.125 C2.256625,3.644375 4.400375,1.75 7,1.75 Z M6.125,12.170375 C3.931375,11.80025 2.2085,10.070375 1.838375,7.875 L4.536,7.875 C4.799375,8.617875 5.382125,9.200625 6.125,9.464 L6.125,12.170375 Z M7,7.875 C6.516125,7.875 6.125,7.483875 6.125,7 C6.125,6.516125 6.516125,6.125 7,6.125 C7.483875,6.125 7.875,6.516125 7.875,7 C7.875,7.483875 7.483875,7.875 7,7.875 Z M7.875,12.170375 L7.875,9.464 C8.617875,9.200625 9.200625,8.617875 9.464,7.875 L12.161625,7.875 C11.7915,10.070375 10.068625,11.80025 7.875,12.170375 Z" id="Hold-This-car" fill="#757789" fill-rule="nonzero"></path>
    </g>
</svg>