<?xml version="1.0" encoding="UTF-8"?>
<svg width="20px" height="20px" viewBox="0 0 20 20" version="1.1" xmlns="http://www.w3.org/2000/svg" xmlns:xlink="http://www.w3.org/1999/xlink">
    <!-- Generator: Sketch 53 (72520) - https://sketchapp.com -->
    <title>Co deudor</title>
    <desc>Created with Sketch.</desc>
    <defs>
        <linearGradient x1="100%" y1="66.1762882%" x2="0%" y2="25.1738461%" id="linearGradient-1">
            <stop stop-color="#00520A" offset="0%"></stop>
            <stop stop-color="#2DA401" offset="100%"></stop>
        </linearGradient>
    </defs>
    <g id="Co-deudor" stroke="none" stroke-width="1" fill="none" fill-rule="evenodd">
        <path d="M5,12.5 C4.77125,12.5 4.56875,12.57875 4.385,12.685 C1.84875,13.4975 0,15.95125 0,18.75 C0,19.44125 0.55875,20 1.25,20 C1.94125,20 2.5,19.44125 2.5,18.75 C2.5,17.11875 3.5475,15.51625 5,15 C5.69125,15 6.25,14.44125 6.25,13.75 C6.25,13.05875 5.69125,12.5 5,12.5 Z M11.25,12.5 L8.75,12.5 C8.05875,12.5 7.5,13.05875 7.5,13.75 C7.5,14.095 7.64,14.4075 7.86625,14.63375 L9.11625,15.88375 C9.3425,16.11 9.655,16.25 10,16.25 C10.345,16.25 10.6575,16.11 10.88375,15.88375 L12.13375,14.63375 C12.36,14.4075 12.5,14.095 12.5,13.75 C12.5,13.05875 11.94125,12.5 11.25,12.5 Z M10,17.5 C9.30875,17.5 8.75,18.05875 8.75,18.75 C8.75,19.44125 9.30875,20 10,20 C10.69125,20 11.25,19.44125 11.25,18.75 C11.25,18.05875 10.69125,17.5 10,17.5 Z M15.615,12.685 C15.43125,12.57875 15.22875,12.5 15,12.5 C14.30875,12.5 13.75,13.05875 13.75,13.75 C13.75,14.44125 14.30875,15 15,15 C16.4525,15.51625 17.5,17.11875 17.5,18.75 C17.5,19.44125 18.05875,20 18.75,20 C19.44125,20 20,19.44125 20,18.75 C20,15.95125 18.15125,13.4975 15.615,12.685 Z M13.75,3.75 C13.75,1.67875 12.07125,0 10,0 C7.92875,0 6.25,1.67875 6.25,3.75 L6.25,6.25 C6.25,8.32125 7.92875,10 10,10 C12.07125,10 13.75,8.32125 13.75,6.25 L13.75,3.75 Z M11.25,6.25 C11.25,6.94125 10.69125,7.5 10,7.5 C9.30875,7.5 8.75,6.94125 8.75,6.25 L8.75,3.75 C8.75,3.05875 9.30875,2.5 10,2.5 C10.69125,2.5 11.25,3.05875 11.25,3.75 L11.25,6.25 Z" id="Shape" fill="url(#linearGradient-1)"></path>
    </g>
</svg>