<?xml version="1.0" encoding="UTF-8"?>
<svg width="20px" height="20px" viewBox="0 0 20 20" version="1.1" xmlns="http://www.w3.org/2000/svg" xmlns:xlink="http://www.w3.org/1999/xlink">
    <!-- Generator: Sketch 53 (72520) - https://sketchapp.com -->
    <title>bateria</title>
    <desc>Created with Sketch.</desc>
    <defs>
        <linearGradient x1="100%" y1="62.3849707%" x2="0%" y2="30.992476%" id="linearGradient-1">
            <stop stop-color="#00520A" offset="0%"></stop>
            <stop stop-color="#2DA401" offset="100%"></stop>
        </linearGradient>
    </defs>
    <g id="bateria" stroke="none" stroke-width="1" fill="none" fill-rule="evenodd">
        <g id="battery" transform="translate(2.000000, 3.000000)" fill="url(#linearGradient-1)">
            <path d="M15,2 L14,2 L14,1 C14,0.447 13.553,0 13,0 L11,0 C10.447,0 10,0.447 10,1 L10,2 L6,2 L6,1 C6,0.447 5.553,0 5,0 L3,0 C2.447,0 2,0.447 2,1 L2,2 L1,2 C0.447,2 0,2.447 0,3 L0,13 C0,13.553 0.447,14 1,14 L15,14 C15.553,14 16,13.553 16,13 L16,3 C16,2.447 15.553,2 15,2 Z M14,12 L2,12 L2,4 L14,4 L14,12 Z M10,9 C10,9.553 10.447,10 11,10 C11.553,10 12,9.553 12,9 C12.553,9 13,8.553 13,8 C13,7.447 12.553,7 12,7 C12,6.447 11.553,6 11,6 C10.447,6 10,6.447 10,7 C9.447,7 9,7.447 9,8 C9,8.553 9.447,9 10,9 Z M4,9 L6,9 C6.553,9 7,8.553 7,8 C7,7.447 6.553,7 6,7 L4,7 C3.447,7 3,7.447 3,8 C3,8.553 3.447,9 4,9 Z" id="Shape"></path>
        </g>
    </g>
</svg>