<?xml version="1.0" encoding="UTF-8"?>
<svg width="20px" height="20px" viewBox="0 0 20 20" version="1.1" xmlns="http://www.w3.org/2000/svg" xmlns:xlink="http://www.w3.org/1999/xlink">
    <!-- Generator: Sketch 53 (72520) - https://sketchapp.com -->
    <title>Aceite</title>
    <desc>Created with Sketch.</desc>
    <defs>
        <linearGradient x1="100%" y1="66.1762882%" x2="0%" y2="25.1738461%" id="linearGradient-1">
            <stop stop-color="#00520A" offset="0%"></stop>
            <stop stop-color="#2DA401" offset="100%"></stop>
        </linearGradient>
    </defs>
    <g id="Aceite" stroke="none" stroke-width="1" fill="none" fill-rule="evenodd">
        <g id="filter" transform="translate(2.000000, 2.000000)" fill="url(#linearGradient-1)">
            <path d="M16,1 C16,0.447 15.553,0 15,0 L1,0 C0.447,0 0,0.447 0,1 C0,1.243 0.098,1.458 0.242,1.632 L0.231,1.641 L0.281,1.69 L5,6.408 L5,15 C5,15.553 5.447,16 6,16 C6.226,16 6.423,15.912 6.59,15.786 L6.6,15.8 L6.663,15.737 C6.689,15.714 6.713,15.69 6.736,15.664 L10.6,11.8 L10.59,11.786 C10.833,11.604 11,11.327 11,11 L11,6.408 L15.719,1.689 L15.769,1.64 L15.758,1.631 C15.902,1.458 16,1.243 16,1 Z M9.281,5.311 L9.231,5.36 L9.242,5.369 C9.098,5.542 9,5.757 9,6 L9,10.6 L7,12.6 L7,6 C7,5.757 6.902,5.542 6.758,5.368 L6.769,5.359 L6.719,5.31 L3.408,2 L12.592,2 L9.281,5.311 Z" id="Shape"></path>
        </g>
    </g>
</svg>