<?xml version="1.0" encoding="UTF-8"?>
<svg width="25px" height="25px" viewBox="0 0 25 25" version="1.1" xmlns="http://www.w3.org/2000/svg" xmlns:xlink="http://www.w3.org/1999/xlink">
    <!-- Generator: Sketch 53 (72520) - https://sketchapp.com -->
    <title>Satisfacción garantizada</title>
    <desc>Created with Sketch.</desc>
    <defs>
        <linearGradient x1="100%" y1="66.1762882%" x2="0%" y2="25.1738461%" id="linearGradient-1">
            <stop stop-color="#00520A" offset="0%"></stop>
            <stop stop-color="#2DA401" offset="100%"></stop>
        </linearGradient>
    </defs>
    <g id="Satisfacción-garantizada" stroke="none" stroke-width="1" fill="none" fill-rule="evenodd">
        <path d="M8.25,11.75 C8.94125,11.75 9.5,11.19125 9.5,10.5 C9.5,9.80875 8.94125,9.25 8.25,9.25 C7.55875,9.25 7,9.80875 7,10.5 C7,11.19125 7.55875,11.75 8.25,11.75 Z M15.75,14.25 C15.75,14.25 13.21125,15.5 12,15.5 C10.71125,15.5 8.25,14.25 8.25,14.25 C7.6375,13.89875 7,14.80875 7,15.5 C7,16.19125 7.8325,16.47625 8.25,16.75 C8.25,16.75 9.47375,18 11.96125,18 C14.51375,18 15.75,16.75 15.75,16.75 C16.32375,16.4375 17,16.19125 17,15.5 C17,14.80875 16.44125,13.97625 15.75,14.25 Z M15.75,9.25 C15.05875,9.25 14.5,9.80875 14.5,10.5 C14.5,11.19125 15.05875,11.75 15.75,11.75 C16.44125,11.75 17,11.19125 17,10.5 C17,9.80875 16.44125,9.25 15.75,9.25 Z M12,3 C6.4775,3 2,7.4775 2,13 C2,18.5225 6.4775,23 12,23 C17.5225,23 22,18.5225 22,13 C22,7.4775 17.5225,3 12,3 Z M12,20.5 C7.85875,20.5 4.5,17.14125 4.5,13 C4.5,8.85875 7.85875,5.5 12,5.5 C16.14125,5.5 19.5,8.85875 19.5,13 C19.5,17.14125 16.14125,20.5 12,20.5 Z" id="Shape" fill="url(#linearGradient-1)"></path>
    </g>
</svg>