<?xml version="1.0" encoding="UTF-8"?>
<svg width="25px" height="25px" viewBox="0 0 25 25" version="1.1" xmlns="http://www.w3.org/2000/svg" xmlns:xlink="http://www.w3.org/1999/xlink">
    <!-- Generator: Sketch 53 (72520) - https://sketchapp.com -->
    <title>Sirviendo durante 25 años</title>
    <desc>Created with Sketch.</desc>
    <defs>
        <linearGradient x1="100%" y1="64.5579663%" x2="0%" y2="27.6575253%" id="linearGradient-1">
            <stop stop-color="#00520A" offset="0%"></stop>
            <stop stop-color="#2DA401" offset="100%"></stop>
        </linearGradient>
    </defs>
    <g id="Sirviendo-durante-25-años" stroke="none" stroke-width="1" fill="none" fill-rule="evenodd">
        <path d="M17.8235294,3 C15.6667059,3 13.8520588,4.405 13.1812941,6.35625 L12.8823529,7.10875 L12.5871176,6.355 C11.9114118,4.40625 10.0967647,3 7.94117647,3 C5.21241176,3 3,5.23875 3,8 C3,16.68625 11.6594118,21.75 12.8823529,21.75 C14.1052941,21.75 22.7647059,16.68625 22.7647059,8 C22.7647059,5.23875 20.5522941,3 17.8235294,3 Z M12.8823529,19.25 C12.3672353,19.25 5.47058824,15.50125 5.47058824,8 C5.47058824,6.62 6.57741176,5.5 7.94117647,5.5 C9.006,5.5 9.82870588,6.3425 10.2524118,7.14125 L10.2437647,7.145 L11.7248824,9.64 C11.8879412,10.135 12.3363529,10.5 12.8823529,10.5 C13.4283529,10.5 13.8767647,10.13625 14.0398235,9.64 L15.5209412,7.145 L15.5122941,7.14125 C16.0521176,6.34125 16.7587059,5.5 17.8235294,5.5 C19.1872941,5.5 20.2941176,6.62 20.2941176,8 C20.2941176,15.4625 13.3974706,19.25 12.8823529,19.25 Z" id="Shape" fill="url(#linearGradient-1)"></path>
    </g>
</svg>