<?xml version="1.0" encoding="UTF-8"?>
<svg width="20px" height="20px" viewBox="0 0 20 20" version="1.1" xmlns="http://www.w3.org/2000/svg" xmlns:xlink="http://www.w3.org/1999/xlink">
    <!-- Generator: Sketch 53 (72520) - https://sketchapp.com -->
    <title>Mantenimiento</title>
    <desc>Created with Sketch.</desc>
    <defs>
        <linearGradient x1="100%" y1="60.3528245%" x2="0%" y2="34.1112615%" id="linearGradient-1">
            <stop stop-color="#00520A" offset="0%"></stop>
            <stop stop-color="#2DA401" offset="100%"></stop>
        </linearGradient>
    </defs>
    <g id="Mantenimiento" stroke="none" stroke-width="1" fill="none" fill-rule="evenodd">
        <path d="M18.75,6.92307692 C18.05875,6.92307692 17.5,7.47323077 17.5,8.15384615 L17.5,9.38461538 L16.25,9.38461538 L16.25,8.15384615 C16.25,7.47323077 15.69125,6.92307692 15,6.92307692 L13.75,6.92307692 L13.75,5.69230769 C13.75,5.01169231 13.19125,4.46153846 12.5,4.46153846 L11.25,4.46153846 L11.25,3.23076923 L13.125,3.23076923 C13.47,3.23076923 13.75,2.95507692 13.75,2.61538462 C13.75,2.27569231 13.47,2 13.125,2 L8.125,2 C7.78,2 7.5,2.27569231 7.5,2.61538462 C7.5,2.95507692 7.78,3.23076923 8.125,3.23076923 L10,3.23076923 L10,4.46153846 L8.75,4.46153846 C8.405,4.46153846 8.0925,4.59938462 7.86625,4.82215385 L4.4825,8.15384615 L3.75,8.15384615 C3.05875,8.15384615 2.5,8.704 2.5,9.38461538 L2.5,10.6153846 L1.25,10.6153846 L1.25,8.76923077 C1.25,8.42953846 0.97,8.15384615 0.625,8.15384615 C0.28,8.15384615 0,8.42953846 0,8.76923077 L0,13.6923077 C0,14.032 0.28,14.3076923 0.625,14.3076923 C0.97,14.3076923 1.25,14.032 1.25,13.6923077 L1.25,11.8461538 L2.5,11.8461538 L2.5,14.3076923 C2.5,14.9883077 3.05875,15.5384615 3.75,15.5384615 L5.7325,15.5384615 L7.86625,17.6393846 C8.0925,17.8621538 8.405,18 8.75,18 L15,18 C15.69125,18 16.25,17.4498462 16.25,16.7692308 L16.25,14.3076923 L17.5,14.3076923 L17.5,15.5384615 C17.5,16.2190769 18.05875,16.7692308 18.75,16.7692308 C19.44125,16.7692308 20,16.2190769 20,15.5384615 L20,8.15384615 C20,7.47323077 19.44125,6.92307692 18.75,6.92307692 Z M13.75,13.0769231 L13.75,15.5384615 L9.2975,15.5384615 L6.7975,13.0769231 L5,13.0769231 L5,11.1150769 L9.21875,6.92307692 L11.25,6.92307692 L11.25,8.15384615 C11.25,8.83446154 11.80875,9.38461538 12.5,9.38461538 L13.75,9.38461538 L13.75,10.6153846 C13.75,11.296 14.30875,11.8461538 15,11.8461538 C14.30875,11.8461538 13.75,12.3963077 13.75,13.0769231 Z" id="Shape" fill="url(#linearGradient-1)"></path>
    </g>
</svg>