<?xml version="1.0" encoding="UTF-8"?>
<svg width="20px" height="20px" viewBox="0 0 20 20" version="1.1" xmlns="http://www.w3.org/2000/svg" xmlns:xlink="http://www.w3.org/1999/xlink">
    <!-- Generator: Sketch 53 (72520) - https://sketchapp.com -->
    <title>Garantia</title>
    <desc>Created with Sketch.</desc>
    <defs>
        <linearGradient x1="100%" y1="66.1762882%" x2="0%" y2="25.1738461%" id="linearGradient-1">
            <stop stop-color="#00520A" offset="0%"></stop>
            <stop stop-color="#2DA401" offset="100%"></stop>
        </linearGradient>
    </defs>
    <g id="Garantia" stroke="none" stroke-width="1" fill="none" fill-rule="evenodd">
        <path d="M8.75,5 L6.25,5 C5.55875,5 5,5.55875 5,6.25 C5,6.94125 5.55875,7.5 6.25,7.5 L8.75,7.5 C9.44125,7.5 10,6.94125 10,6.25 C10,5.55875 9.44125,5 8.75,5 Z M18.75,15 L15,15 L15,1.25 C15,0.55875 14.44125,0 13.75,0 L1.25,0 C0.55875,0 0,0.55875 0,1.25 L0,16.25 C0,18.32125 1.67875,20 3.75,20 L16.25,20 C18.32125,20 20,18.32125 20,16.25 C20,15.55875 19.44125,15 18.75,15 Z M5,16.25 C5,16.94125 4.44125,17.5 3.75,17.5 C3.05875,17.5 2.5,16.94125 2.5,16.25 L2.5,2.5 L12.5,2.5 L12.5,15 L6.25,15 C5.55875,15 5,15.55875 5,16.25 Z M16.25,17.5 L7.27,17.5 C7.41,17.1075 7.5,16.69125 7.5,16.25 L17.5,16.25 C17.5,16.94125 16.94125,17.5 16.25,17.5 Z" id="Shape" fill="url(#linearGradient-1)"></path>
    </g>
</svg>