<?xml version="1.0" encoding="UTF-8"?>
<svg width="55px" height="94px" viewBox="0 0 55 94" version="1.1" xmlns="http://www.w3.org/2000/svg" xmlns:xlink="http://www.w3.org/1999/xlink">
    <!-- Generator: Sketch 49.3 (51167) - http://www.bohemiancoding.com/sketch -->
    <title>ACEITE</title>
    <desc>Created with Sketch.</desc>
    <defs></defs>
    <g id="Page-1-Copy" stroke="none" stroke-width="1" fill="none" fill-rule="evenodd">
        <g id="SIN-CODEUDOR-1" transform="translate(-1371.000000, -3125.000000)" stroke="#D7D7D7" stroke-width="2">
            <g id="ACEITE" transform="translate(1372.000000, 3125.000000)">
                <path d="M27.864221,17.3311873 L27.864221,13.5444556 L46.9674454,13.5444556 C46.9674454,17.3341748 46.9674454,19.3817471 46.9674454,19.6871726 C46.9674454,20.1453108 47.3276254,20.2804965 47.4386076,20.5693739 C48.6736556,23.7841031 49.6711352,26.356143 50.4310462,28.2854936 C51.2592432,30.3882167 51.8234275,33.7516527 52.1235989,38.3758014 C52.1235989,66.2515865 52.1235989,82.1177248 52.1235989,85.9742162 C52.1235989,89.8307076 50.4048811,91.7719042 46.9674454,91.797806 C24.4931065,91.937388 11.0965922,92.007179 6.77790256,92.007179 C2.45921289,92.007179 0.551161723,90.0702993 1.05374905,86.19654 C1.10644259,61.9326617 1.15041444,47.7634733 1.1856646,43.688975 C1.22091476,39.6144767 2.22136517,37.1976941 4.18701582,36.4386273 L27.864221,17.3311873 Z M11.0390116,42.3932842 C10.2658129,42.3932842 9.63901159,43.0200856 9.63901159,43.7932842 L9.63901159,85.4360742 C9.63901159,86.2092729 10.2658129,86.8360742 11.0390116,86.8360742 L42.1067881,86.8360742 C42.8799868,86.8360742 43.5067881,86.2092729 43.5067881,85.4360742 L43.5067881,43.7932842 C43.5067881,43.0200856 42.8799868,42.3932842 42.1067881,42.3932842 L11.0390116,42.3932842 Z" id="Combined-Shape"></path>
                <path d="M28.7543339,8.64596529 L45.657279,8.64596529 L45.657279,2.38958845 C45.657279,1.78207523 45.1647922,1.28958845 44.557279,1.28958845 L29.8543339,1.28958845 C29.2468207,1.28958845 28.7543339,1.78207523 28.7543339,2.38958845 L28.7543339,8.64596529 Z" id="Rectangle-9"></path>
                <path d="M26.4588224,77.4796974 C31.3982273,77.4796974 35.4024061,73.5158065 35.4024061,68.6260993 C35.4024061,63.736392 26.4588224,51.7496611 26.4588224,51.7496611 C26.4588224,51.7496611 17.5152387,63.736392 17.5152387,68.6260993 C17.5152387,73.5158065 21.5194175,77.4796974 26.4588224,77.4796974 Z" id="Oval-5"></path>
            </g>
        </g>
    </g>
</svg>