<?xml version="1.0" encoding="UTF-8"?>
<svg width="73px" height="53px" viewBox="0 0 73 53" version="1.1" xmlns="http://www.w3.org/2000/svg" xmlns:xlink="http://www.w3.org/1999/xlink">
    <!-- Generator: Sketch 49.3 (51167) - http://www.bohemiancoding.com/sketch -->
    <title>BATERIA</title>
    <desc>Created with Sketch.</desc>
    <defs></defs>
    <g id="Page-1-Copy" stroke="none" stroke-width="1" fill="none" fill-rule="evenodd">
        <g id="SIN-CODEUDOR-1" transform="translate(-476.000000, -3146.000000)" stroke="#3E9120" stroke-width="1.5">
            <g id="BATERIA" transform="translate(476.000000, 3146.000000)">
                <path d="M50.3109774,5.38292849 L22.9097088,5.38292849 L22.9097088,1.64683029 C22.9097088,1.34528282 22.6652563,1.10083029 22.3637088,1.10083029 L13.0842941,1.10083029 C12.7827466,1.10083029 12.5382941,1.34528282 12.5382941,1.64683029 L12.5382941,5.38292849 L2.29209881,5.38292849 C1.99055134,5.38292849 1.74609881,5.62738102 1.74609881,5.92892849 L1.74609881,10.8306003 C1.74609881,11.1321478 1.99055134,11.3766003 2.29209881,11.3766003 L70.9285874,11.3766003 C71.2301349,11.3766003 71.4745874,11.1321478 71.4745874,10.8306003 L71.4745874,5.92892849 C71.4745874,5.62738102 71.2301349,5.38292849 70.9285874,5.38292849 L60.6823922,5.38292849 L60.6823922,1.64683029 C60.6823922,1.34528282 60.4379396,1.10083029 60.1363922,1.10083029 L50.8569774,1.10083029 C50.5554299,1.10083029 50.3109774,1.34528282 50.3109774,1.64683029 L50.3109774,5.38292849 Z" id="Combined-Shape"></path>
                <path d="M3.90453786,14.3039664 L3.90453786,50.5056917 C3.90453786,51.1651197 4.43910987,51.6996917 5.09853786,51.6996917 L68.1221484,51.6996917 C68.7815763,51.6996917 69.3161484,51.1651197 69.3161484,50.5056917 L69.3161484,14.3039664 L3.90453786,14.3039664 Z M15.0470462,34.8900848 L10.381847,34.8900848 L10.381847,30.1967099 L15.0470462,30.1967099 L15.0470462,25.570566 L19.6571791,25.570566 L19.6571791,30.1967099 L24.3345272,30.1967099 L24.3345272,34.8900848 L19.6571791,34.8900848 L19.6571791,39.5162287 L15.0470462,39.5162287 L15.0470462,34.8900848 Z M49.1760399,35.2047359 L49.1760399,30.292803 L61.1065942,30.292803 L61.1065942,35.2047359 L49.1760399,35.2047359 Z" id="Combined-Shape"></path>
            </g>
        </g>
    </g>
</svg>