<?xml version="1.0" encoding="UTF-8"?>
<svg width="74px" height="73px" viewBox="0 0 74 73" version="1.1" xmlns="http://www.w3.org/2000/svg" xmlns:xlink="http://www.w3.org/1999/xlink">
    <!-- Generator: Sketch 49.3 (51167) - http://www.bohemiancoding.com/sketch -->
    <title>FRENOS</title>
    <desc>Created with Sketch.</desc>
    <defs></defs>
    <g id="Page-1-Copy" stroke="none" stroke-width="1" fill="none" fill-rule="evenodd">
        <g id="SIN-CODEUDOR-1" transform="translate(-919.000000, -3136.000000)" stroke="#D7D7D7" stroke-width="2">
            <g id="FRENOS" transform="translate(920.000000, 3138.000000)">
                <path d="M38.5,55 C28.8350169,55 21,47.3888407 21,38 C21,28.6111593 28.8350169,21 38.5,21 C48.1649831,21 56,28.6111593 56,38 C56,47.3888407 48.1649831,55 38.5,55 Z M37.9354839,28.6774194 C39.1825785,28.6774194 40.1935484,27.6953343 40.1935484,26.483871 C40.1935484,25.2724076 39.1825785,24.2903226 37.9354839,24.2903226 C36.6883893,24.2903226 35.6774194,25.2724076 35.6774194,26.483871 C35.6774194,27.6953343 36.6883893,28.6774194 37.9354839,28.6774194 Z M26.6451613,39.6451613 C27.8922559,39.6451613 28.9032258,38.6630762 28.9032258,37.4516129 C28.9032258,36.2401496 27.8922559,35.2580645 26.6451613,35.2580645 C25.3980667,35.2580645 24.3870968,36.2401496 24.3870968,37.4516129 C24.3870968,38.6630762 25.3980667,39.6451613 26.6451613,39.6451613 Z M37.9354839,51.7096774 C39.1825785,51.7096774 40.1935484,50.7275924 40.1935484,49.516129 C40.1935484,48.3046657 39.1825785,47.3225806 37.9354839,47.3225806 C36.6883893,47.3225806 35.6774194,48.3046657 35.6774194,49.516129 C35.6774194,50.7275924 36.6883893,51.7096774 37.9354839,51.7096774 Z M49.2258065,39.6451613 C50.472901,39.6451613 51.483871,38.6630762 51.483871,37.4516129 C51.483871,36.2401496 50.472901,35.2580645 49.2258065,35.2580645 C47.9787119,35.2580645 46.9677419,36.2401496 46.9677419,37.4516129 C46.9677419,38.6630762 47.9787119,39.6451613 49.2258065,39.6451613 Z M38.5,42.9354839 C41.3059628,42.9354839 43.5806452,40.7257925 43.5806452,38 C43.5806452,35.2742075 41.3059628,33.0645161 38.5,33.0645161 C35.6940372,33.0645161 33.4193548,35.2742075 33.4193548,38 C33.4193548,40.7257925 35.6940372,42.9354839 38.5,42.9354839 Z" id="Combined-Shape"></path>
                <path d="M38.8563585,69 C57.1610863,69 72,54.4492544 72,36.5 C72,29.601677 69.8082232,23.2053297 66.0702794,17.9440302 C60.3892817,9.94780783 51.1368711,4.57337534 40.5794954,4.04316663 C40.0088102,4.01450589 39.4343119,4 38.8563585,4 C30.0895141,4 22.1176664,7.33768461 16.1902654,12.7878677 C10.9742517,17.5839377 7.34139737,24.0158644 6.14311915,31.2487654 C6.09073662,31.5649504 6.04300652,31.8826662 6,32.2018428" id="Oval-4" transform="translate(39.000000, 36.500000) rotate(86.000000) translate(-39.000000, -36.500000) "></path>
                <path d="M36,0 C36,0 36,5.90571044 36,17.7171313 C24.8278046,18.5527064 18.8819362,24.3136626 18.1623948,35 C18.1623948,35 0.0453492485,34.7949158 0.0453492485,34.7949158 C-0.862444094,18.8177253 11.8841796,0.773452312 36,0 Z" id="Path-2"></path>
            </g>
        </g>
    </g>
</svg>