<?xml version="1.0" encoding="UTF-8"?>
<svg width="50px" height="50px" viewBox="0 0 50 50" version="1.1" xmlns="http://www.w3.org/2000/svg" xmlns:xlink="http://www.w3.org/1999/xlink">
    <!-- Generator: Sketch 53 (72520) - https://sketchapp.com -->
    <title>Automatic</title>
    <desc>Created with Sketch.</desc>
    <defs>
        <linearGradient x1="100%" y1="66.1762882%" x2="0%" y2="25.1738461%" id="linearGradient-1">
            <stop stop-color="#00520A" offset="0%"></stop>
            <stop stop-color="#2DA401" offset="100%"></stop>
        </linearGradient>
    </defs>
    <g id="Automatic" stroke="none" stroke-width="1" fill="none" fill-rule="evenodd">
        <path d="M28.125,38.3639545 L28.125,28.1246094 L43.75,28.1246094 C45.478125,28.1246094 46.875,26.727909 46.875,25 L46.875,11.6329209 C48.7375,10.5486814 50,8.5551806 50,6.24921885 C50,2.79965004 47.2,0 43.75,0 C40.3,0 37.5,2.79965004 37.5,6.24921885 C37.5,8.5551806 38.7625,10.5486814 40.625,11.6329209 L40.625,21.8753906 L28.125,21.8753906 L28.125,11.6329209 C29.9875,10.5486814 31.25,8.5551806 31.25,6.24921885 C31.25,2.79965004 28.45,0 25,0 C21.55,0 18.75,2.79965004 18.75,6.24921885 C18.75,8.5551806 20.0125,10.5486814 21.875,11.6329209 L21.875,21.8753906 L9.375,21.8753906 L9.375,11.6329209 C11.2375,10.5486814 12.5,8.5551806 12.5,6.24921885 C12.5,2.79965004 9.7,0 6.25,0 C2.8,0 0,2.79965004 0,6.24921885 C0,8.5551806 1.2625,10.5486814 3.125,11.6329209 L3.125,38.3670791 C1.2625,39.4513186 0,41.4416948 0,43.7507812 C0,47.20035 2.8,50 6.25,50 C9.7,50 12.5,47.20035 12.5,43.7507812 C12.5,41.4448194 11.2375,39.4513186 9.375,38.3670791 L9.375,28.1246094 L21.875,28.1246094 L21.875,38.3639545 C20.0125,39.448194 18.75,41.4385702 18.75,43.7476565 C18.75,47.1972253 21.55,49.9968754 25,49.9968754 C28.45,49.9968754 31.25,47.1972253 31.25,43.7476565 C31.25,41.4416948 29.9875,39.448194 28.125,38.3639545 Z M50,35.936133 C50,33.3489564 47.9,31.2492188 45.3125,31.2492188 C45.3125,31.2492188 37.209375,31.2492188 37.5,31.2492188 C35.771875,31.2492188 34.375,32.6459193 34.375,34.3738283 L34.375,46.872266 C34.375,48.600175 35.771875,49.9968754 37.5,49.9968754 C39.228125,49.9968754 40.625,48.600175 40.625,46.872266 L40.625,45.0412448 L44.665625,49.0813648 C45.23125,49.6469191 46.0125,49.9968754 46.875,49.9968754 C48.603125,49.9968754 50,48.600175 50,46.872266 C50,46.0098738 49.65,45.2287214 49.084375,44.6631671 L45.04375,40.6230471 C45.04375,40.6230471 50,40.4699413 50,35.936133 Z" id="Shape" fill="url(#linearGradient-1)"></path>
    </g>
</svg>