<?xml version="1.0" encoding="UTF-8"?>
<svg width="50px" height="50px" viewBox="0 0 50 50" version="1.1" xmlns="http://www.w3.org/2000/svg" xmlns:xlink="http://www.w3.org/1999/xlink">
    <!-- Generator: Sketch 53 (72520) - https://sketchapp.com -->
    <title>color</title>
    <desc>Created with Sketch.</desc>
    <defs>
        <linearGradient x1="100%" y1="64.9080672%" x2="0%" y2="27.1202166%" id="linearGradient-1">
            <stop stop-color="#00520A" offset="0%"></stop>
            <stop stop-color="#2DA401" offset="100%"></stop>
        </linearGradient>
    </defs>
    <g id="color" stroke="none" stroke-width="1" fill="none" fill-rule="evenodd">
        <path d="M40.5,18.28 C40.534375,17.8512 40.625,17.4384 40.625,17 C40.625,8.1616 33.63125,1 25,1 C16.36875,1 9.375,8.1616 9.375,17 C9.375,17.4416 9.4375,17.8672 9.46875,18.296 C3.903125,20.744 0,26.4016 0,33 C0,41.8384 6.99375,49 15.625,49 C19.159375,49 22.38125,47.752 25,45.7296 C27.61875,47.752 30.840625,49 34.375,49 C43.00625,49 50,41.8384 50,33 C50,26.392 46.084375,20.7184 40.5,18.28 Z M15.625,42.6 C10.446875,42.6 6.25,38.3024 6.25,33 C6.25,29.32 8.29375,26.1616 11.2625,24.5488 C12.9375,27.7328 15.60625,30.2896 18.875,31.72 C18.840625,32.1488 18.75,32.5616 18.75,33 C18.75,35.9056 19.565625,38.5936 20.8875,40.9424 C19.3875,41.9888 17.575,42.6 15.625,42.6 Z M15.625,17 C15.625,11.6976 19.821875,7.4 25,7.4 C30.178125,7.4 34.375,11.6976 34.375,17 C30.8375,17 27.609375,18.2384 25.009375,20.28 C22.390625,18.2512 19.1625,17 15.625,17 Z M34.375,42.6 C32.425,42.6 30.6125,41.9888 29.1125,40.9424 C30.434375,38.5936 31.25,35.9056 31.25,33 C31.25,32.552 31.15625,32.1328 31.121875,31.6944 C34.365625,30.2544 37.034375,27.7136 38.70625,24.536 C41.690625,26.136 43.75,29.3072 43.75,33 C43.75,38.3024 39.553125,42.6 34.375,42.6 Z" id="Shape" fill="url(#linearGradient-1)"></path>
    </g>
</svg>