<?xml version="1.0" encoding="UTF-8"?>
<svg width="50px" height="50px" viewBox="0 0 50 50" version="1.1" xmlns="http://www.w3.org/2000/svg" xmlns:xlink="http://www.w3.org/1999/xlink">
    <!-- Generator: Sketch 53 (72520) - https://sketchapp.com -->
    <title>door</title>
    <desc>Created with Sketch.</desc>
    <defs>
        <linearGradient x1="100%" y1="59.3434241%" x2="0%" y2="35.6604135%" id="linearGradient-1">
            <stop stop-color="#00520A" offset="0%"></stop>
            <stop stop-color="#2DA401" offset="100%"></stop>
        </linearGradient>
    </defs>
    <g id="door" stroke="none" stroke-width="1" fill="none" fill-rule="evenodd">
        <path d="M40.625,18.6666667 L40.625,15.5 C40.625,10.2528333 36.428125,6 31.25,6 L9.375,6 C7.646875,6 6.25,7.4155 6.25,9.16666667 L6.25,19.2493333 C2.61875,20.5571667 0,24.0341667 0,28.1666667 L0,34.5 C0,36.2511667 1.396875,37.6666667 3.125,37.6666667 C3.125,41.1626667 5.925,44 9.375,44 C12.825,44 15.625,41.1626667 15.625,37.6666667 L34.375,37.6666667 C34.375,41.1626667 37.175,44 40.625,44 C44.075,44 46.875,41.1626667 46.875,37.6666667 C48.603125,37.6666667 50,36.2511667 50,34.5 L50,28.1666667 C50,22.9195 45.803125,18.6666667 40.625,18.6666667 Z M21.875,12.3333333 L31.25,12.3333333 C32.978125,12.3333333 34.375,13.7488333 34.375,15.5 L34.375,18.6666667 L21.875,18.6666667 L21.875,12.3333333 Z M12.5,12.3333333 L18.75,12.3333333 L18.75,18.6666667 L12.5,18.6666667 L12.5,12.3333333 Z M43.75,31.3333333 L6.25,31.3333333 L6.25,28.1666667 C6.25,26.4155 7.646875,25 9.375,25 L40.625,25 C42.353125,25 43.75,26.4155 43.75,28.1666667 L43.75,31.3333333 Z" id="Shape" fill="url(#linearGradient-1)"></path>
    </g>
</svg>