<?xml version="1.0" encoding="UTF-8"?>
<svg width="50px" height="50px" viewBox="0 0 50 50" version="1.1" xmlns="http://www.w3.org/2000/svg" xmlns:xlink="http://www.w3.org/1999/xlink">
    <!-- Generator: Sketch 53 (72520) - https://sketchapp.com -->
    <title>engine</title>
    <desc>Created with Sketch.</desc>
    <defs>
        <linearGradient x1="100%" y1="60.3528245%" x2="0%" y2="34.1112615%" id="linearGradient-1">
            <stop stop-color="#00520A" offset="0%"></stop>
            <stop stop-color="#2DA401" offset="100%"></stop>
        </linearGradient>
    </defs>
    <g id="engine" stroke="none" stroke-width="1" fill="none" fill-rule="evenodd">
        <path d="M46.875,17.3076923 C45.146875,17.3076923 43.75,18.6830769 43.75,20.3846154 L43.75,23.4615385 L40.625,23.4615385 L40.625,20.3846154 C40.625,18.6830769 39.228125,17.3076923 37.5,17.3076923 L34.375,17.3076923 L34.375,14.2307692 C34.375,12.5292308 32.978125,11.1538462 31.25,11.1538462 L28.125,11.1538462 L28.125,8.07692308 L32.8125,8.07692308 C33.675,8.07692308 34.375,7.38769231 34.375,6.53846154 C34.375,5.68923077 33.675,5 32.8125,5 L20.3125,5 C19.45,5 18.75,5.68923077 18.75,6.53846154 C18.75,7.38769231 19.45,8.07692308 20.3125,8.07692308 L25,8.07692308 L25,11.1538462 L21.875,11.1538462 C21.0125,11.1538462 20.23125,11.4984615 19.665625,12.0553846 L11.20625,20.3846154 L9.375,20.3846154 C7.646875,20.3846154 6.25,21.76 6.25,23.4615385 L6.25,26.5384615 L3.125,26.5384615 L3.125,21.9230769 C3.125,21.0738462 2.425,20.3846154 1.5625,20.3846154 C0.7,20.3846154 0,21.0738462 0,21.9230769 L0,34.2307692 C0,35.08 0.7,35.7692308 1.5625,35.7692308 C2.425,35.7692308 3.125,35.08 3.125,34.2307692 L3.125,29.6153846 L6.25,29.6153846 L6.25,35.7692308 C6.25,37.4707692 7.646875,38.8461538 9.375,38.8461538 L14.33125,38.8461538 L19.665625,44.0984615 C20.23125,44.6553846 21.0125,45 21.875,45 L37.5,45 C39.228125,45 40.625,43.6246154 40.625,41.9230769 L40.625,35.7692308 L43.75,35.7692308 L43.75,38.8461538 C43.75,40.5476923 45.146875,41.9230769 46.875,41.9230769 C48.603125,41.9230769 50,40.5476923 50,38.8461538 L50,20.3846154 C50,18.6830769 48.603125,17.3076923 46.875,17.3076923 Z M34.375,32.6923077 L34.375,38.8461538 L23.24375,38.8461538 L16.99375,32.6923077 L12.5,32.6923077 L12.5,27.7876923 L23.046875,17.3076923 L28.125,17.3076923 L28.125,20.3846154 C28.125,22.0861538 29.521875,23.4615385 31.25,23.4615385 L34.375,23.4615385 L34.375,26.5384615 C34.375,28.24 35.771875,29.6153846 37.5,29.6153846 C35.771875,29.6153846 34.375,30.9907692 34.375,32.6923077 Z" id="Shape" fill="url(#linearGradient-1)"></path>
    </g>
</svg>