<?xml version="1.0" encoding="UTF-8"?>
<svg width="50px" height="50px" viewBox="0 0 50 50" version="1.1" xmlns="http://www.w3.org/2000/svg" xmlns:xlink="http://www.w3.org/1999/xlink">
    <!-- Generator: Sketch 53 (72520) - https://sketchapp.com -->
    <title>oil</title>
    <desc>Created with Sketch.</desc>
    <defs>
        <linearGradient x1="100%" y1="62.5269176%" x2="0%" y2="30.7746265%" id="linearGradient-1">
            <stop stop-color="#00520A" offset="0%"></stop>
            <stop stop-color="#2DA401" offset="100%"></stop>
        </linearGradient>
    </defs>
    <g id="oil" stroke="none" stroke-width="1" fill="none" fill-rule="evenodd">
        <path d="M40.625,15.5714286 L40.625,12.4285714 C40.625,7.22085714 36.428125,3 31.25,3 L18.75,3 C13.571875,3 9.375,7.22085714 9.375,12.4285714 L9.375,15.5714286 C4.196875,15.5714286 0,19.7922857 0,25 L0,37.5714286 C0,39.3094286 1.396875,40.7142857 3.125,40.7142857 L6.25,40.7142857 L6.25,43.8571429 C6.25,45.5951429 7.646875,47 9.375,47 C11.103125,47 12.5,45.5951429 12.5,43.8571429 L12.5,40.7142857 L37.5,40.7142857 L37.5,43.8571429 C37.5,45.5951429 38.896875,47 40.625,47 C42.353125,47 43.75,45.5951429 43.75,43.8571429 L43.75,40.7142857 L46.875,40.7142857 C48.603125,40.7142857 50,39.3094286 50,37.5714286 L50,25 C50,19.7922857 45.803125,15.5714286 40.625,15.5714286 Z M15.625,12.4285714 C15.625,10.6905714 17.021875,9.28571429 18.75,9.28571429 L31.25,9.28571429 C32.978125,9.28571429 34.375,10.6905714 34.375,12.4285714 L34.375,15.5714286 L15.625,15.5714286 L15.625,12.4285714 Z M43.75,34.4285714 L6.25,34.4285714 L6.25,25 C6.25,23.262 7.646875,21.8571429 9.375,21.8571429 L40.625,21.8571429 C42.353125,21.8571429 43.75,23.262 43.75,25 L43.75,34.4285714 Z M12.5,25 C10.771875,25 9.375,26.4048571 9.375,28.1428571 C9.375,29.8808571 10.771875,31.2857143 12.5,31.2857143 C14.228125,31.2857143 15.625,29.8808571 15.625,28.1428571 C15.625,26.4048571 14.228125,25 12.5,25 Z M37.5,25 C35.771875,25 34.375,26.4048571 34.375,28.1428571 C34.375,29.8808571 35.771875,31.2857143 37.5,31.2857143 C39.228125,31.2857143 40.625,29.8808571 40.625,28.1428571 C40.625,26.4048571 39.228125,25 37.5,25 Z" id="Shape" fill="url(#linearGradient-1)"></path>
    </g>
</svg>