<?xml version="1.0" encoding="UTF-8"?>
<svg width="23px" height="20px" viewBox="0 0 23 20" version="1.1" xmlns="http://www.w3.org/2000/svg" xmlns:xlink="http://www.w3.org/1999/xlink">
    <!-- Generator: Sketch 53 (72520) - https://sketchapp.com -->
    <title>menu-mobilr</title>
    <desc>Created with Sketch.</desc>
    <g id="Page-1" stroke="none" stroke-width="1" fill="none" fill-rule="evenodd">
        <path d="M12.65,16.6666667 L1.15,16.6666667 C0.514872538,16.6666667 0,17.4128588 0,18.3333333 C0,19.2538079 0.514872538,20 1.15,20 L12.65,20 C13.2851275,20 13.8,19.2538079 13.8,18.3333333 C13.8,17.4128588 13.2851275,16.6666667 12.65,16.6666667 Z M1.15,3.33333333 L21.85,3.33333333 C22.4851275,3.33333333 23,2.58714125 23,1.66666667 C23,0.746192084 22.4851275,0 21.85,0 L1.15,0 C0.514872538,0 0,0.746192084 0,1.66666667 C0,2.58714125 0.514872538,3.33333333 1.15,3.33333333 Z M18.5642857,8.33333333 L1.15,8.33333333 C0.514872538,8.33333333 0,9.07952542 0,10 C0,10.9204746 0.514872538,11.6666667 1.15,11.6666667 L18.5642857,11.6666667 C19.1994132,11.6666667 19.7142857,10.9204746 19.7142857,10 C19.7142857,9.07952542 19.1994132,8.33333333 18.5642857,8.33333333 Z" id="menu-mobilr" fill="#50525E" fill-rule="nonzero" transform="translate(11.500000, 10.000000) scale(-1, 1) translate(-11.500000, -10.000000) "></path>
    </g>
</svg>