<?xml version="1.0" encoding="UTF-8"?>
<svg width="20px" height="20px" viewBox="0 0 20 20" version="1.1" xmlns="http://www.w3.org/2000/svg" xmlns:xlink="http://www.w3.org/1999/xlink">
    <!-- Generator: Sketch 53 (72520) - https://sketchapp.com -->
    <title>features</title>
    <desc>Created with Sketch.</desc>
    <defs>
        <linearGradient x1="100%" y1="64.5991001%" x2="0%" y2="27.5943961%" id="linearGradient-1">
            <stop stop-color="#00520A" offset="0%"></stop>
            <stop stop-color="#2DA401" offset="100%"></stop>
        </linearGradient>
    </defs>
    <g id="features" stroke="none" stroke-width="1" fill="none" fill-rule="evenodd">
        <path d="M8.75802697,2.53443104 L18.7500586,2.53443104 C19.4412762,2.53443104 20,1.96826878 20,1.26784881 C20,0.567428838 19.4412762,0.00126658223 18.7500586,0.00126658223 L8.75802697,0.00126658223 C8.06680937,0.00126658223 7.50808556,0.567428838 7.50808556,1.26784881 C7.50808556,1.96826878 8.06680937,2.53443104 8.75802697,2.53443104 Z M0.0134368701,19 L5.01070262,19 L5.01070262,13.9336711 L0.0134368701,13.9336711 L0.0134368701,19 Z M1.26337828,15.2002533 L3.76076121,15.2002533 L3.76076121,17.7334178 L1.26337828,17.7334178 L1.26337828,15.2002533 Z M0.0134368701,11.4005066 L5.01070262,11.4005066 L5.01070262,6.33417772 L0.0134368701,6.33417772 L0.0134368701,11.4005066 Z M1.26337828,7.60075995 L3.76076121,7.60075995 L3.76076121,10.1339244 L1.26337828,10.1339244 L1.26337828,7.60075995 Z M18.7500586,7.60075995 L8.75802697,7.60075995 C8.06680937,7.60075995 7.50808556,8.16692221 7.50808556,8.86734218 C7.50808556,9.56776215 8.06680937,10.1339244 8.75802697,10.1339244 L18.7500586,10.1339244 C19.4412762,10.1339244 20,9.56776215 20,8.86734218 C20,8.16692221 19.4412762,7.60075995 18.7500586,7.60075995 Z M18.7500586,15.2002533 L8.75802697,15.2002533 C8.06680937,15.2002533 7.50808556,15.7664156 7.50808556,16.4668355 C7.50808556,17.1672555 8.06680937,17.7334178 8.75802697,17.7334178 L18.7500586,17.7334178 C19.4412762,17.7334178 20,17.1672555 20,16.4668355 C20,15.7664156 19.4412762,15.2002533 18.7500586,15.2002533 Z M1.72085683,3.61735884 C1.9370967,3.8554763 2.28583035,3.8554763 2.50082027,3.61735884 L4.84071059,1.03859743 C5.05570051,0.800479968 5.05570051,0.416705553 4.84071059,0.178588094 C4.62447073,-0.0595293647 4.27573707,-0.0595293647 4.06074715,0.178588094 L2.11083855,2.32797813 L0.942143337,1.03859743 C0.727153415,0.800479968 0.37716982,0.800479968 0.162179898,1.03859743 C-0.0540599659,1.27671489 -0.0540599659,1.6604893 0.162179898,1.89860676 L1.72085683,3.61735884 Z" id="Shape" fill="url(#linearGradient-1)"></path>
    </g>
</svg>