<?xml version="1.0" encoding="UTF-8"?>
<svg width="45px" height="45px" viewBox="0 0 45 45" version="1.1" xmlns="http://www.w3.org/2000/svg" xmlns:xlink="http://www.w3.org/1999/xlink">
    <!-- Generator: Sketch 53 (72520) - https://sketchapp.com -->
    <title>no-obligations</title>
    <desc>Created with Sketch.</desc>
    <defs>
        <linearGradient x1="100%" y1="66.1762882%" x2="0%" y2="25.1738461%" id="linearGradient-1">
            <stop stop-color="#00520A" offset="0%"></stop>
            <stop stop-color="#2DA401" offset="100%"></stop>
        </linearGradient>
    </defs>
    <g id="no-obligations" stroke="none" stroke-width="1" fill="none" fill-rule="evenodd">
        <g id="seal-of-approval" fill="url(#linearGradient-1)">
            <path d="M30.9375,14.0625 C29.9615625,14.0625 29.143125,14.59125 28.6425,15.3421875 L19.6903125,24.1509375 L16.0509375,20.5115625 C15.541875,20.0025 14.83875,19.6875 14.0625,19.6875 C12.5071875,19.6875 11.25,20.9446875 11.25,22.5 C11.25,23.27625 11.565,23.979375 12.0740625,24.4884375 L17.6990625,30.1134375 C18.208125,30.6225 18.91125,30.9375 19.6875,30.9375 C21.54375,30.9375 22.0275,29.6859375 22.0275,29.6859375 L33.2775,18.4359375 C33.2775,18.4359375 33.75,18.0225 33.75,16.875 C33.75,15.3196875 32.4928125,14.0625 30.9375,14.0625 Z M22.5,0 C10.074375,0 0,10.074375 0,22.5 C0,34.925625 10.074375,45 22.5,45 C34.925625,45 45,34.925625 45,22.5 C45,10.074375 34.925625,0 22.5,0 Z M22.5,39.375 C13.1821875,39.375 5.625,31.8178125 5.625,22.5 C5.625,13.1821875 13.1821875,5.625 22.5,5.625 C31.8178125,5.625 39.375,13.1821875 39.375,22.5 C39.375,31.8178125 31.8178125,39.375 22.5,39.375 Z" id="Shape"></path>
        </g>
    </g>
</svg>