<?xml version="1.0" encoding="UTF-8"?>
<svg width="45px" height="45px" viewBox="0 0 45 45" version="1.1" xmlns="http://www.w3.org/2000/svg" xmlns:xlink="http://www.w3.org/1999/xlink">
    <!-- Generator: Sketch 53 (72520) - https://sketchapp.com -->
    <title>sell-your-car-today</title>
    <desc>Created with Sketch.</desc>
    <defs>
        <linearGradient x1="100%" y1="59.2344638%" x2="0%" y2="35.8276376%" id="linearGradient-1">
            <stop stop-color="#00520A" offset="0%"></stop>
            <stop stop-color="#2DA401" offset="100%"></stop>
        </linearGradient>
    </defs>
    <g id="sell-your-car-today" stroke="none" stroke-width="1" fill="none" fill-rule="evenodd">
        <g id="price" transform="translate(0.000000, 5.500000)" fill="url(#linearGradient-1)">
            <path d="M36.5625,11.3333333 L36.5625,8.5 C36.5625,3.80516667 32.7853125,0 28.125,0 L8.4375,0 C6.8821875,0 5.625,1.2665 5.625,2.83333333 L5.625,11.8546667 C2.356875,13.0248333 0,16.1358333 0,19.8333333 L0,25.5 C0,27.0668333 1.2571875,28.3333333 2.8125,28.3333333 C2.8125,31.4613333 5.3325,34 8.4375,34 C11.5425,34 14.0625,31.4613333 14.0625,28.3333333 L30.9375,28.3333333 C30.9375,31.4613333 33.4575,34 36.5625,34 C39.6675,34 42.1875,31.4613333 42.1875,28.3333333 C43.7428125,28.3333333 45,27.0668333 45,25.5 L45,19.8333333 C45,15.1385 41.2228125,11.3333333 36.5625,11.3333333 Z M19.6875,5.66666667 L28.125,5.66666667 C29.6803125,5.66666667 30.9375,6.93316667 30.9375,8.5 L30.9375,11.3333333 L19.6875,11.3333333 L19.6875,5.66666667 Z M11.25,5.66666667 L16.875,5.66666667 L16.875,11.3333333 L11.25,11.3333333 L11.25,5.66666667 Z M39.375,22.6666667 L5.625,22.6666667 L5.625,19.8333333 C5.625,18.2665 6.8821875,17 8.4375,17 L36.5625,17 C38.1178125,17 39.375,18.2665 39.375,19.8333333 L39.375,22.6666667 Z" id="Shape"></path>
        </g>
    </g>
</svg>