<?xml version="1.0" encoding="UTF-8"?>
<svg width="20px" height="20px" viewBox="0 0 20 20" version="1.1" xmlns="http://www.w3.org/2000/svg" xmlns:xlink="http://www.w3.org/1999/xlink">
    <!-- Generator: Sketch 53 (72520) - https://sketchapp.com -->
    <title>vehicle-conditions</title>
    <desc>Created with Sketch.</desc>
    <defs>
        <linearGradient x1="100%" y1="63.1027935%" x2="0%" y2="29.8908154%" id="linearGradient-1">
            <stop stop-color="#00520A" offset="0%"></stop>
            <stop stop-color="#2DA401" offset="100%"></stop>
        </linearGradient>
    </defs>
    <g id="vehicle-conditions" stroke="none" stroke-width="1" fill="none" fill-rule="evenodd">
        <path d="M16.25,6.14285714 L16.25,4.85714286 C16.25,2.72671429 14.57125,1 12.5,1 L7.5,1 C5.42875,1 3.75,2.72671429 3.75,4.85714286 L3.75,6.14285714 C1.67875,6.14285714 0,7.86957143 0,10 L0,15.1428571 C0,15.8538571 0.55875,16.4285714 1.25,16.4285714 L2.5,16.4285714 L2.5,17.7142857 C2.5,18.4252857 3.05875,19 3.75,19 C4.44125,19 5,18.4252857 5,17.7142857 L5,16.4285714 L15,16.4285714 L15,17.7142857 C15,18.4252857 15.55875,19 16.25,19 C16.94125,19 17.5,18.4252857 17.5,17.7142857 L17.5,16.4285714 L18.75,16.4285714 C19.44125,16.4285714 20,15.8538571 20,15.1428571 L20,10 C20,7.86957143 18.32125,6.14285714 16.25,6.14285714 Z M6.25,4.85714286 C6.25,4.14614286 6.80875,3.57142857 7.5,3.57142857 L12.5,3.57142857 C13.19125,3.57142857 13.75,4.14614286 13.75,4.85714286 L13.75,6.14285714 L6.25,6.14285714 L6.25,4.85714286 Z M17.5,13.8571429 L2.5,13.8571429 L2.5,10 C2.5,9.289 3.05875,8.71428571 3.75,8.71428571 L16.25,8.71428571 C16.94125,8.71428571 17.5,9.289 17.5,10 L17.5,13.8571429 Z M5,10 C4.30875,10 3.75,10.5747143 3.75,11.2857143 C3.75,11.9967143 4.30875,12.5714286 5,12.5714286 C5.69125,12.5714286 6.25,11.9967143 6.25,11.2857143 C6.25,10.5747143 5.69125,10 5,10 Z M15,10 C14.30875,10 13.75,10.5747143 13.75,11.2857143 C13.75,11.9967143 14.30875,12.5714286 15,12.5714286 C15.69125,12.5714286 16.25,11.9967143 16.25,11.2857143 C16.25,10.5747143 15.69125,10 15,10 Z" id="Shape" fill="url(#linearGradient-1)"></path>
    </g>
</svg>