<?xml version="1.0" encoding="UTF-8"?>
<svg width="50px" height="50px" viewBox="0 0 50 50" version="1.1" xmlns="http://www.w3.org/2000/svg" xmlns:xlink="http://www.w3.org/1999/xlink">
    <!-- Generator: Sketch 59.1 (86144) - https://sketch.com -->
    <title>color</title>
    <desc>Created with Sketch.</desc>
    <defs>
        <linearGradient x1="100%" y1="65.5357072%" x2="0%" y2="26.1569618%" id="linearGradient-1">
            <stop stop-color="#00520A" offset="0%"></stop>
            <stop stop-color="#2DA401" offset="100%"></stop>
        </linearGradient>
    </defs>
    <g id="color" stroke="none" stroke-width="1" fill="none" fill-rule="evenodd">
        <path d="M40.5,17.64 C40.534375,17.2022667 40.625,16.7808667 40.625,16.3333333 C40.625,7.3108 33.63125,0 25,0 C16.36875,0 9.375,7.3108 9.375,16.3333333 C9.375,16.7841333 9.4375,17.2186 9.46875,17.6563333 C3.903125,20.1553333 0,25.9308 0,32.6666667 C0,41.6892 6.99375,49 15.625,49 C19.159375,49 22.38125,47.726 25,45.6614667 C27.61875,47.726 30.840625,49 34.375,49 C43.00625,49 50,41.6892 50,32.6666667 C50,25.921 46.084375,20.1292 40.5,17.64 Z M16.6071734,42 C11.3008113,42 7,37.7145896 7,32.4272292 C7,28.7576671 9.09436379,25.6082255 12.1366354,24 C13.853117,27.174969 16.587959,29.7245169 19.9376601,31.1508598 C19.9024338,31.5784435 19.8095645,31.9900727 19.8095645,32.4272292 C19.8095645,35.3245878 20.6453886,38.0049637 22,40.3471016 C20.4628523,41.3905336 18.6054654,42 16.6071734,42 Z M15,16.689441 C15,11.3376398 19.2528333,7 24.5,7 C29.7471667,7 34,11.3376398 34,16.689441 C30.4153333,16.689441 27.1441667,17.9393789 24.5095,20 C21.8558333,17.9522981 18.5846667,16.689441 15,16.689441 Z M34.3928266,42 C32.3945346,42 30.5371477,41.3909655 29,40.3482728 C30.3546114,38.0077945 31.1904355,35.329318 31.1904355,32.4340124 C31.1904355,31.9875996 31.0943638,31.5698849 31.0591375,31.1330381 C34.3832195,29.6981399 37.1180615,27.1663419 38.8313407,24 C41.8896243,25.5943313 44,28.7542958 44,32.4340124 C44,37.7176262 39.6991887,42 34.3928266,42 Z" id="Shape" fill="url(#linearGradient-1)"></path>
    </g>
</svg>