<?xml version="1.0" encoding="UTF-8"?>
<svg width="50px" height="50px" viewBox="0 0 50 50" version="1.1" xmlns="http://www.w3.org/2000/svg" xmlns:xlink="http://www.w3.org/1999/xlink">
    <!-- Generator: Sketch 59.1 (86144) - https://sketch.com -->
    <title>Stock</title>
    <desc>Created with Sketch.</desc>
    <defs>
        <linearGradient x1="100%" y1="57.5189989%" x2="0%" y2="38.4604044%" id="linearGradient-1">
            <stop stop-color="#00520A" offset="0%"></stop>
            <stop stop-color="#2DA401" offset="100%"></stop>
        </linearGradient>
    </defs>
    <g id="Stock" stroke="none" stroke-width="1" fill="none" fill-rule="evenodd">
        <g id="message-read" transform="translate(1.000000, 9.000000)" fill="url(#linearGradient-1)">
            <path d="M34.7029412,1.10541667 C33.5794118,-0.02625 31.7617647,-0.02625 30.6411765,1.10541667 L12.3617647,19.5241667 L5.14705882,12.2091667 C4.02647059,11.0804167 2.20882353,11.0804167 1.08529412,12.2091667 C-0.0352941176,13.3408333 -0.0352941176,15.1725 1.08529412,16.30125 L10.3323529,25.66375 C11.4529412,26.7983333 13.2705882,26.7983333 14.3941176,25.66375 L34.7029412,5.20041667 C35.8235294,4.06875 35.8235294,2.24 34.7029412,1.10541667 Z M46.4676471,6.93291667 C45.3441176,5.80416667 43.5264706,5.80416667 42.4058824,6.93291667 L24.1264706,25.3516667 L24.1235294,25.3516667 C23.6058824,24.5204167 22.7205882,23.9370833 21.6617647,23.9370833 C20.0352941,23.9370833 18.7205882,25.2379167 18.7205882,26.8508333 C18.7205882,27.6908333 19.0882353,28.4316667 19.6588235,28.9625 L22.0941176,31.4941667 C23.2147059,32.6258333 25.0323529,32.6258333 26.1558824,31.4941667 L46.4647059,11.0308333 C47.5882353,9.89916667 47.5882353,8.0675 46.4676471,6.93291667 Z" id="Shape"></path>
        </g>
    </g>
</svg>