<?xml version="1.0" encoding="UTF-8"?>
<svg width="50px" height="50px" viewBox="0 0 50 50" version="1.1" xmlns="http://www.w3.org/2000/svg" xmlns:xlink="http://www.w3.org/1999/xlink">
    <!-- Generator: Sketch 59.1 (86144) - https://sketch.com -->
    <title>door car</title>
    <desc>Created with Sketch.</desc>
    <defs>
        <linearGradient x1="100%" y1="66.1762882%" x2="0%" y2="25.1738461%" id="linearGradient-1">
            <stop stop-color="#00520A" offset="0%"></stop>
            <stop stop-color="#2DA401" offset="100%"></stop>
        </linearGradient>
        <linearGradient x1="100%" y1="55.2109153%" x2="0%" y2="42.002678%" id="linearGradient-2">
            <stop stop-color="#00520A" offset="0%"></stop>
            <stop stop-color="#2DA401" offset="100%"></stop>
        </linearGradient>
        <linearGradient x1="100%" y1="58.5560533%" x2="0%" y2="36.8688112%" id="linearGradient-3">
            <stop stop-color="#00520A" offset="0%"></stop>
            <stop stop-color="#2DA401" offset="100%"></stop>
        </linearGradient>
    </defs>
    <g id="door-car" stroke="none" stroke-width="1" fill="none" fill-rule="evenodd">
        <g id="car-door">
            <path d="M48.7128906,20.1764648 L29.8236328,1.28710938 C28.9936523,0.45703125 27.8900391,0 26.7162109,0 L4.39453125,0 C1.97138672,0 0,1.97138672 0,4.39453125 L0,45.6054688 C0,48.0286133 1.97138672,50 4.39453125,50 L27.9296875,50 C28.4845703,50 28.9916992,49.6865234 29.2399414,49.1902344 C32.5830078,42.5039062 39.5498047,38.1835938 46.9886719,38.1835938 L48.5351562,38.1835938 C49.3441406,38.1835938 50,37.5277344 50,36.71875 L50,23.2838867 C50,22.1100586 49.5428711,21.006543 48.7128906,20.1764648 Z M45.3493514,34.4543447 L45.2740768,34.4543447 C41.3934735,34.4543447 37.5781502,35.549608 34.2404964,37.6217302 C31.1515369,39.5395215 28.6228148,42.1997941 26.8854665,45.3493514 L6.00126925,45.3493514 C5.25653702,45.3493514 4.65064858,44.743463 4.65064858,43.9987307 L4.65064858,6.00126925 C4.65064858,5.25653702 5.25653702,4.65064858 6.00126925,4.65064858 L26.5823872,4.65064858 C26.9430929,4.65064858 27.2822788,4.79111313 27.537366,5.0462904 L44.9537096,22.462634 C45.2087968,22.7177212 45.3493514,23.0569071 45.3493514,23.4177029 L45.3493514,34.4543447 Z" id="Shape" fill="url(#linearGradient-1)"></path>
            <path d="M43.587133,24.9427583 L27.0403734,7.44030332 C26.7739923,7.1584455 26.4117519,7 26.0338977,7 L8.41943734,7 C7.63552941,7 7,7.66841706 7,8.492891 L7,26.507109 C7,27.3315829 7.63552941,28 8.41943734,28 L42.5805627,28 C43.3644706,28 44,27.3315829 44,26.507109 L44,25.995346 C44,25.6009242 43.8515269,25.2224265 43.587133,24.9427583 Z M10.4301856,24.7466035 L10.4301856,10.7200632 L25.6346985,10.7200632 L39.4781142,24.7466035 L10.4301856,24.7466035 Z" id="Shape" fill="url(#linearGradient-2)"></path>
            <path d="M17.625,32 L9.375,32 C8.61563333,32 8,32.5969778 8,33.3333333 L8,34.6666667 C8,37.6074667 10.4673,40 13.5,40 C16.5327,40 19,37.6074667 19,34.6666667 L19,33.3333333 C19,32.5969778 18.3843667,32 17.625,32 Z M13.5,37.3333333 C11.98365,37.3333333 10.75,36.1281778 10.75,34.6577778 L16.25,34.6577778 C16.25,36.1281778 15.01635,37.3333333 13.5,37.3333333 Z" id="Shape" fill="url(#linearGradient-3)"></path>
        </g>
    </g>
</svg>