<?xml version="1.0" encoding="UTF-8"?>
<svg width="50px" height="50px" viewBox="0 0 50 50" version="1.1" xmlns="http://www.w3.org/2000/svg" xmlns:xlink="http://www.w3.org/1999/xlink">
    <!-- Generator: Sketch 59.1 (86144) - https://sketch.com -->
    <title>engine</title>
    <desc>Created with Sketch.</desc>
    <defs>
        <linearGradient x1="100%" y1="61.413989%" x2="0%" y2="32.4826658%" id="linearGradient-1">
            <stop stop-color="#00520A" offset="0%"></stop>
            <stop stop-color="#2DA401" offset="100%"></stop>
        </linearGradient>
    </defs>
    <g id="engine" stroke="none" stroke-width="1" fill="none" fill-rule="evenodd">
        <path d="M46.875,16.9230769 C45.146875,16.9230769 43.75,18.3672308 43.75,20.1538462 L43.75,23.3846154 L40.625,23.3846154 L40.625,20.1538462 C40.625,18.3672308 39.228125,16.9230769 37.5,16.9230769 L34.375,16.9230769 L34.375,13.6923077 C34.375,11.9056923 32.978125,10.4615385 31.25,10.4615385 L28.125,10.4615385 L28.125,7.23076923 L32.8125,7.23076923 C33.675,7.23076923 34.375,6.50707692 34.375,5.61538462 C34.375,4.72369231 33.675,4 32.8125,4 L20.3125,4 C19.45,4 18.75,4.72369231 18.75,5.61538462 C18.75,6.50707692 19.45,7.23076923 20.3125,7.23076923 L25,7.23076923 L25,10.4615385 L21.875,10.4615385 C21.0125,10.4615385 20.23125,10.8233846 19.665625,11.4081538 L11.20625,20.1538462 L9.375,20.1538462 C7.646875,20.1538462 6.25,21.598 6.25,23.3846154 L6.25,26.6153846 L3.125,26.6153846 L3.125,21.7692308 C3.125,20.8775385 2.425,20.1538462 1.5625,20.1538462 C0.7,20.1538462 0,20.8775385 0,21.7692308 L0,34.6923077 C0,35.584 0.7,36.3076923 1.5625,36.3076923 C2.425,36.3076923 3.125,35.584 3.125,34.6923077 L3.125,29.8461538 L6.25,29.8461538 L6.25,36.3076923 C6.25,38.0943077 7.646875,39.5384615 9.375,39.5384615 L14.33125,39.5384615 L19.665625,45.0533846 C20.23125,45.6381538 21.0125,46 21.875,46 L37.5,46 C39.228125,46 40.625,44.5558462 40.625,42.7692308 L40.625,36.3076923 L43.75,36.3076923 L43.75,39.5384615 C43.75,41.3250769 45.146875,42.7692308 46.875,42.7692308 C48.603125,42.7692308 50,41.3250769 50,39.5384615 L50,20.1538462 C50,18.3672308 48.603125,16.9230769 46.875,16.9230769 Z M35.625,33.4285714 L35.625,40 L23.60325,40 L16.85325,33.4285714 L12,33.4285714 L12,28.1911429 L23.390625,17 L28.875,17 L28.875,20.2857143 C28.875,22.1027143 30.383625,23.5714286 32.25,23.5714286 L35.625,23.5714286 L35.625,26.8571429 C35.625,28.6741429 37.133625,30.1428571 39,30.1428571 C37.133625,30.1428571 35.625,31.6115714 35.625,33.4285714 Z" id="Shape" fill="url(#linearGradient-1)"></path>
    </g>
</svg>