<?xml version="1.0" encoding="UTF-8"?>
<svg width="45px" height="45px" viewBox="0 0 45 45" version="1.1" xmlns="http://www.w3.org/2000/svg" xmlns:xlink="http://www.w3.org/1999/xlink">
    <!-- Generator: Sketch 53 (72520) - https://sketchapp.com -->
    <title>Financing Online</title>
    <desc>Created with Sketch.</desc>
    <defs>
        <linearGradient x1="100%" y1="66.1762882%" x2="0%" y2="25.1738461%" id="linearGradient-1">
            <stop stop-color="#00520A" offset="0%"></stop>
            <stop stop-color="#2DA401" offset="100%"></stop>
        </linearGradient>
    </defs>
    <g id="Financing-Online" stroke="none" stroke-width="1" fill="none" fill-rule="evenodd">
        <g id="suitcase" fill="url(#linearGradient-1)">
            <path d="M42.1875,11.25 L33.75,11.25 C33.75,5.0371875 28.7128125,0 22.5,0 C16.2871875,0 11.25,5.0371875 11.25,11.25 L2.8125,11.25 C1.2571875,11.25 0,12.5071875 0,14.0625 L0,42.1875 C0,43.7428125 1.2571875,45 2.8125,45 L42.1875,45 C43.7428125,45 45,43.7428125 45,42.1875 L45,14.0625 C45,12.5071875 43.7428125,11.25 42.1875,11.25 Z M22.5,5.625 C25.605,5.625 28.125,8.145 28.125,11.25 L16.875,11.25 C16.875,8.145 19.395,5.625 22.5,5.625 Z M39.375,39.375 L5.625,39.375 L5.625,16.875 L39.375,16.875 L39.375,39.375 Z M22.5,33.75 C20.5734375,33.75 19.6875,32.4253125 19.6875,30.9375 L16.875,30.9375 C16.875,33.733125 19.395,36.5625 22.5,36.5625 C25.605,36.5625 28.125,33.733125 28.125,30.9375 C28.125,28.141875 25.605,26.8846875 22.5,26.8846875 C21.465,26.8846875 19.6875,26.465625 19.6875,25.3125 C19.6875,24.046875 20.683125,22.5 22.5,22.5 C24.2015625,22.5 25.3125,23.8246875 25.3125,25.3125 L28.125,25.3125 C28.125,22.516875 25.605,19.6875 22.5,19.6875 C19.395,19.6875 16.875,22.516875 16.875,25.3125 C16.875,28.108125 19.395,29.3653125 22.5,29.3653125 C23.535,29.3653125 25.3125,29.6690625 25.3125,30.9375 C25.3125,32.535 24.2015625,33.75 22.5,33.75 Z" id="Shape"></path>
        </g>
    </g>
</svg>