<?xml version="1.0" encoding="UTF-8"?>
<svg width="50px" height="50px" viewBox="0 0 50 50" version="1.1" xmlns="http://www.w3.org/2000/svg" xmlns:xlink="http://www.w3.org/1999/xlink">
    <!-- Generator: Sketch 59.1 (86144) - https://sketch.com -->
    <title>Milles</title>
    <desc>Created with Sketch.</desc>
    <defs>
        <linearGradient x1="100%" y1="63.1027935%" x2="0%" y2="29.8908154%" id="linearGradient-1">
            <stop stop-color="#00520A" offset="0%"></stop>
            <stop stop-color="#2DA401" offset="100%"></stop>
        </linearGradient>
    </defs>
    <g id="Milles" stroke="none" stroke-width="1" fill="none" fill-rule="evenodd">
        <path d="M25,12.6428571 C23.271875,12.6428571 21.875,14.0796429 21.875,15.8571429 C21.875,17.6346429 23.271875,19.0714286 25,19.0714286 C26.728125,19.0714286 28.125,17.6346429 28.125,15.8571429 C28.125,14.0796429 26.728125,12.6428571 25,12.6428571 Z M12.5,22.2857143 C10.771875,22.2857143 9.375,23.7225 9.375,25.5 C9.375,27.2775 10.771875,28.7142857 12.5,28.7142857 C14.228125,28.7142857 15.625,27.2775 15.625,25.5 C15.625,23.7225 14.228125,22.2857143 12.5,22.2857143 Z M25,3 C11.19375,3 0,14.5135714 0,28.7142857 C0,34.8021429 2.8125,40.3821429 6.25,44.7857143 C6.8375,45.8592857 8.33125,48 9.375,48 L40.625,48 C41.471875,48 43.165625,45.9589286 43.75,44.7857143 C47.1875,40.3821429 50,34.8021429 50,28.7142857 C50,14.5135714 38.80625,3 25,3 Z M38.146875,41.5714286 L35.7375,41.5714286 C33.828125,38.1835714 30.4625,35.8692857 26.521875,35.355 L21.703125,18.2003571 C21.328125,16.86 20.175,15.8571429 18.75,15.8571429 C17.021875,15.8571429 15.625,17.2939286 15.625,19.0714286 C15.625,19.7014286 15.74375,19.9521429 15.74375,19.9521429 L20.265625,36.2292857 C17.75625,37.3285714 15.621875,39.1575 14.2625,41.5714286 L11.85625,41.5714286 C8.6,38.1578571 6.25,33.6642857 6.25,28.7142857 C6.25,18.0653571 14.646875,9.42857143 25,9.42857143 C35.35625,9.42857143 43.75,18.0653571 43.75,28.7142857 C43.75,33.6642857 41.403125,38.1578571 38.146875,41.5714286 Z M37.5,22.2857143 C35.771875,22.2857143 34.375,23.7225 34.375,25.5 C34.375,27.2775 35.775,28.7142857 37.5,28.7142857 C39.225,28.7142857 40.625,27.2775 40.625,25.5 C40.625,23.7225 39.228125,22.2857143 37.5,22.2857143 Z" id="Shape" fill="url(#linearGradient-1)"></path>
    </g>
</svg>