<?xml version="1.0" encoding="UTF-8"?>
<svg width="50px" height="50px" viewBox="0 0 50 50" version="1.1" xmlns="http://www.w3.org/2000/svg" xmlns:xlink="http://www.w3.org/1999/xlink">
    <!-- Generator: Sketch 59.1 (86144) - https://sketch.com -->
    <title>oil</title>
    <desc>Created with Sketch.</desc>
    <defs>
        <linearGradient x1="100%" y1="63.6916104%" x2="0%" y2="28.9871434%" id="linearGradient-1">
            <stop stop-color="#00520A" offset="0%"></stop>
            <stop stop-color="#2DA401" offset="100%"></stop>
        </linearGradient>
    </defs>
    <g id="oil" stroke="none" stroke-width="1" fill="none" fill-rule="evenodd">
        <path d="M40.625,15.1428571 L40.625,11.8571429 C40.625,6.41271429 36.428125,2 31.25,2 L18.75,2 C13.571875,2 9.375,6.41271429 9.375,11.8571429 L9.375,15.1428571 C4.196875,15.1428571 0,19.5555714 0,25 L0,38.1428571 C0,39.9598571 1.396875,41.4285714 3.125,41.4285714 L6.25,41.4285714 L6.25,44.7142857 C6.25,46.5312857 7.646875,48 9.375,48 C11.103125,48 12.5,46.5312857 12.5,44.7142857 L12.5,41.4285714 L37.5,41.4285714 L37.5,44.7142857 C37.5,46.5312857 38.896875,48 40.625,48 C42.353125,48 43.75,46.5312857 43.75,44.7142857 L43.75,41.4285714 L46.875,41.4285714 C48.603125,41.4285714 50,39.9598571 50,38.1428571 L50,25 C50,19.5555714 45.803125,15.1428571 40.625,15.1428571 Z M15,11 C15,8.788 16.4155,7 18.1666667,7 L30.8333333,7 C32.5845,7 34,8.788 34,11 L34,15 L15,15 L15,11 Z M44,36 L6,36 L6,25.5 C6,23.5645 7.4155,22 9.16666667,22 L40.8333333,22 C42.5845,22 44,23.5645 44,25.5 L44,36 Z M12,26 C10.341,26 9,27.341 9,29 C9,30.659 10.341,32 12,32 C13.659,32 15,30.659 15,29 C15,27.341 13.659,26 12,26 Z M37,26 C35.341,26 34,27.341 34,29 C34,30.659 35.341,32 37,32 C38.659,32 40,30.659 40,29 C40,27.341 38.659,26 37,26 Z" id="Shape" fill="url(#linearGradient-1)"></path>
    </g>
</svg>