<?xml version="1.0" encoding="UTF-8"?>
<svg width="45px" height="45px" viewBox="0 0 45 45" version="1.1" xmlns="http://www.w3.org/2000/svg" xmlns:xlink="http://www.w3.org/1999/xlink">
    <!-- Generator: Sketch 53 (72520) - https://sketchapp.com -->
    <title>Precios Bajos</title>
    <desc>Created with Sketch.</desc>
    <defs>
        <linearGradient x1="100%" y1="66.1762882%" x2="0%" y2="25.1738461%" id="linearGradient-1">
            <stop stop-color="#00520A" offset="0%"></stop>
            <stop stop-color="#2DA401" offset="100%"></stop>
        </linearGradient>
    </defs>
    <g id="Precios-Bajos" stroke="none" stroke-width="1" fill="none" fill-rule="evenodd">
        <g id="price" fill="url(#linearGradient-1)">
            <path d="M11.255625,8.44044438 C9.7003125,8.44044438 8.443125,9.70046407 8.443125,11.2529883 C8.443125,12.8083251 9.7003125,14.0655323 11.255625,14.0655323 C12.8109375,14.0655323 14.068125,12.8083251 14.068125,11.2529883 C14.068125,9.70046407 12.8109375,8.44044438 11.255625,8.44044438 Z M44.1984375,23.0572353 L21.8334375,1.04064126 C21.3159375,0.419069048 20.5678125,0 19.6959375,0 L2.8125,0 C1.2571875,0 0,1.26001969 0,2.81254395 L0,19.6962453 C0,20.4471945 0.30375,21.1250176 0.781875,21.6284629 L0.765,21.6453382 L23.0540625,44.1963156 C24.125625,45.2678948 25.86375,45.2678948 26.9353125,44.1963156 L44.1984375,26.9329208 C45.2671875,25.8641541 45.2671875,24.1288145 44.1984375,23.0572353 Z M24.9946875,38.3799747 L5.6278125,18.7624807 L5.6278125,5.62790044 L18.675,5.62790044 L38.379375,24.995078 L24.9946875,38.3799747 Z M22.51125,30.9520461 C23.2875,30.9520461 23.9934375,30.6370412 24.5025,30.1279707 L30.1303125,24.5000703 C30.639375,23.9909999 30.954375,23.2878639 30.954375,22.5087892 C30.954375,20.9534524 29.6971875,19.6962453 28.141875,19.6962453 C27.365625,19.6962453 26.6596875,20.0112502 26.150625,20.5203206 L20.52,26.1482211 C20.0109375,26.6572915 19.6959375,27.3604275 19.6959375,28.1395022 C19.6959375,29.694839 20.9559375,30.9520461 22.51125,30.9520461 Z" id="Shape"></path>
        </g>
    </g>
</svg>