<?xml version="1.0" encoding="UTF-8"?>
<svg width="50px" height="50px" viewBox="0 0 50 50" version="1.1" xmlns="http://www.w3.org/2000/svg" xmlns:xlink="http://www.w3.org/1999/xlink">
    <!-- Generator: Sketch 59.1 (86144) - https://sketch.com -->
    <title>Stock CAR</title>
    <desc>Created with Sketch.</desc>
    <defs>
        <linearGradient x1="100%" y1="66.0733508%" x2="0%" y2="25.3318268%" id="linearGradient-1">
            <stop stop-color="#00520A" offset="0%"></stop>
            <stop stop-color="#2DA401" offset="100%"></stop>
        </linearGradient>
    </defs>
    <g id="Stock-CAR" stroke="none" stroke-width="1" fill="none" fill-rule="evenodd">
        <path d="M35.6699107,0.348622971 C37.8706432,0.541162121 39.4986056,2.48129218 39.3060665,4.68202473 L38.578,12.9991608 L46,13 C48.209139,13 50,14.790861 50,17 C50,19.209139 48.209139,21 46,21 L37.878,20.9991608 L37.178,28.9991608 L46,29 C48.209139,29 50,30.790861 50,33 C50,35.209139 48.209139,37 46,37 L36.478,36.9991608 L35.6455253,46.5222021 C35.4529861,48.7229346 33.5128561,50.350897 31.3121235,50.1583579 C29.111391,49.9658187 27.4834285,48.0256887 27.6759677,45.8249561 L28.447,36.9991608 L19.151,36.9991608 L18.3181806,46.5222021 C18.1256414,48.7229346 16.1855114,50.350897 13.9847788,50.1583579 C11.7840462,49.9658187 10.1560838,48.0256887 10.348623,45.8249561 L11.12,36.9991608 L4,37 C1.790861,37 2.705415e-16,35.209139 0,33 C-2.705415e-16,30.790861 1.790861,29 4,29 L11.82,28.9991608 L12.52,20.9991608 L4,21 C1.790861,21 2.705415e-16,19.209139 0,17 C-2.705415e-16,14.790861 1.790861,13 4,13 L13.22,12.9991608 L14.0091642,3.98477879 C14.2017033,1.78404623 16.1418334,0.156083821 18.3425659,0.348622971 C20.5432985,0.541162121 22.1712609,2.48129218 21.9787218,4.68202473 L21.25,12.9991608 L30.547,12.9991608 L31.3365089,3.98477879 C31.529048,1.78404623 33.4691781,0.156083821 35.6699107,0.348622971 Z M29.847,20.9991608 L20.551,20.9991608 L19.851,28.9991608 L29.147,28.9991608 L29.847,20.9991608 Z" id="Combined-Shape" fill="url(#linearGradient-1)"></path>
    </g>
</svg>