<?xml version="1.0" encoding="UTF-8"?>
<svg width="50px" height="50px" viewBox="0 0 50 50" version="1.1" xmlns="http://www.w3.org/2000/svg" xmlns:xlink="http://www.w3.org/1999/xlink">
    <!-- Generator: Sketch 59.1 (86144) - https://sketch.com -->
    <title>VIM</title>
    <desc>Created with Sketch.</desc>
    <defs>
        <linearGradient x1="100%" y1="57.0463912%" x2="0%" y2="39.1857274%" id="linearGradient-1">
            <stop stop-color="#00520A" offset="0%"></stop>
            <stop stop-color="#2DA401" offset="100%"></stop>
        </linearGradient>
    </defs>
    <g id="VIM" stroke="none" stroke-width="1" fill="none" fill-rule="evenodd">
        <path d="M12.0689655,9 C11.1155172,9 10.3448276,10.00575 10.3448276,11.25 L10.3448276,33.75 C10.3448276,34.99425 11.1155172,36 12.0689655,36 C13.0224138,36 13.7931034,34.99425 13.7931034,33.75 L13.7931034,11.25 C13.7931034,10.00575 13.0224138,9 12.0689655,9 Z M17.2413793,9 C16.287931,9 15.5172414,10.00575 15.5172414,11.25 L15.5172414,33.75 C15.5172414,34.99425 16.287931,36 17.2413793,36 C18.1948276,36 18.9655172,34.99425 18.9655172,33.75 L18.9655172,11.25 C18.9655172,10.00575 18.1948276,9 17.2413793,9 Z M32.7586207,9 C31.8051724,9 31.0344828,10.00575 31.0344828,11.25 L31.0344828,33.75 C31.0344828,34.99425 31.8051724,36 32.7586207,36 C33.712069,36 34.4827586,34.99425 34.4827586,33.75 L34.4827586,11.25 C34.4827586,10.00575 33.712069,9 32.7586207,9 Z M37.9310345,9 C36.9775862,9 36.2068966,10.00575 36.2068966,11.25 L36.2068966,33.75 C36.2068966,34.99425 36.9775862,36 37.9310345,36 C38.8844828,36 39.6551724,34.99425 39.6551724,33.75 L39.6551724,11.25 C39.6551724,10.00575 38.8844828,9 37.9310345,9 Z M6.89655172,9 C5.94310345,9 5.17241379,9.9219375 5.17241379,11.0625 L5.17241379,39.9375 C5.17241379,41.0780625 5.94310345,42 6.89655172,42 C7.85,42 8.62068966,41.0780625 8.62068966,39.9375 L8.62068966,11.0625 C8.62068966,9.9219375 7.85,9 6.89655172,9 Z M1.72413793,9 C0.770689655,9 1.77635684e-15,9.9219375 1.77635684e-15,11.0625 L1.77635684e-15,39.9375 C1.77635684e-15,41.0780625 0.770689655,42 1.72413793,42 C2.67758621,42 3.44827586,41.0780625 3.44827586,39.9375 L3.44827586,11.0625 C3.44827586,9.9219375 2.67758621,9 1.72413793,9 Z M27.5862069,9 C26.6327586,9 25.862069,9.9219375 25.862069,11.0625 L25.862069,39.9375 C25.862069,41.0780625 26.6327586,42 27.5862069,42 C28.5396552,42 29.3103448,41.0780625 29.3103448,39.9375 L29.3103448,11.0625 C29.3103448,9.9219375 28.5396552,9 27.5862069,9 Z M22.4137931,9 C21.4603448,9 20.6896552,9.9219375 20.6896552,11.0625 L20.6896552,39.9375 C20.6896552,41.0780625 21.4603448,42 22.4137931,42 C23.3672414,42 24.137931,41.0780625 24.137931,39.9375 L24.137931,11.0625 C24.137931,9.9219375 23.3672414,9 22.4137931,9 Z M48.2758621,9 C47.3224138,9 46.5517241,9.9219375 46.5517241,11.0625 L46.5517241,39.9375 C46.5517241,41.0780625 47.3224138,42 48.2758621,42 C49.2293103,42 50,41.0780625 50,39.9375 L50,11.0625 C50,9.9219375 49.2293103,9 48.2758621,9 Z M43.1034483,9 C42.15,9 41.3793103,9.9219375 41.3793103,11.0625 L41.3793103,39.9375 C41.3793103,41.0780625 42.15,42 43.1034483,42 C44.0568966,42 44.8275862,41.0780625 44.8275862,39.9375 L44.8275862,11.0625 C44.8275862,9.9219375 44.0568966,9 43.1034483,9 Z" id="Shape-Copy-2" fill="url(#linearGradient-1)"></path>
    </g>
</svg>